<?xml version="1.0" encoding="UTF-8" standalone="no"?>
<!-- Created with Inkscape (http://www.inkscape.org/) -->

<svg
   xmlns:dc="http://purl.org/dc/elements/1.1/"
   xmlns:cc="http://creativecommons.org/ns#"
   xmlns:rdf="http://www.w3.org/1999/02/22-rdf-syntax-ns#"
   xmlns:svg="http://www.w3.org/2000/svg"
   xmlns="http://www.w3.org/2000/svg"
   version="1.1"
   width="530.5451"
   height="10.838375"
   id="svg2"
   xml:space="preserve"><metadata
     id="metadata8"><rdf:RDF><cc:Work
         rdf:about=""><dc:format>image/svg+xml</dc:format><dc:type
           rdf:resource="http://purl.org/dc/dcmitype/StillImage" /><dc:title></dc:title></cc:Work></rdf:RDF></metadata><defs
     id="defs6"><clipPath
       id="clipPath20"><path
         d="M 0,0 425,0 425,9 0,9 0,0 z"
         id="path22" /></clipPath></defs><g
     transform="matrix(1.25,0,0,-1.25,0,10.838375)"
     id="g10"><g
       id="g12" /><g
       id="g14"><g
         transform="translate(0,-0.3293)"
         id="g16"><g
           id="g18" /><g
           id="g24"><g
             clip-path="url(#clipPath20)"
             id="g26"><g
               id="g28"><path
                 d="M 3.852,8.43 2.461,2.715 C 2.395,2.449 2.168,2.324 1.93,2.324 1.691,2.324 1.465,2.449 1.398,2.715 L 0.008,8.43 C 0,8.457 0,8.504 0,8.551 0,8.809 0.199,9 0.477,9 0.656,9 0.848,8.906 0.902,8.648 L 1.93,4.273 2.957,8.648 C 3.016,8.906 3.203,9 3.383,9 3.66,9 3.859,8.809 3.859,8.551 c 0,-0.047 0,-0.094 -0.007,-0.121"
                 id="path30"
                 style="fill:#2b2b2a;fill-opacity:1;fill-rule:nonzero;stroke:none" /><path
                 d="m 7.012,5.445 c 0,0.387 -0.313,0.664 -0.645,0.664 l -0.086,0 C 5.91,6.109 5.605,5.844 5.605,5.473 l 0,-0.43 1.407,0 0,0.402 z m 0.457,-1.246 -1.864,0 0,-0.344 c 0,-0.371 0.297,-0.636 0.668,-0.636 l 0.075,0 c 0.656,0 0.492,0.656 0.996,0.656 0.238,0 0.476,-0.152 0.476,-0.41 C 7.82,3.41 7.801,3.344 7.773,3.258 7.469,2.648 7.043,2.324 6.348,2.324 l -0.075,0 c -0.875,0 -1.578,0.656 -1.578,1.531 l 0,1.618 c 0,0.863 0.719,1.539 1.578,1.539 l 0.075,0 c 0.875,0 1.578,-0.657 1.578,-1.567 l 0,-0.789 C 7.926,4.418 7.727,4.199 7.469,4.199"
                 id="path32"
                 style="fill:#2b2b2a;fill-opacity:1;fill-rule:nonzero;stroke:none" /><path
                 d="m 11.184,5.766 c -0.418,0 -0.172,0.343 -0.676,0.343 -0.266,0 -0.485,-0.093 -0.485,-0.425 l 0,-2.891 c 0,-0.316 -0.238,-0.469 -0.464,-0.469 -0.231,0 -0.45,0.153 -0.45,0.469 l 0,3.762 c 0,0.304 0.219,0.457 0.457,0.457 0.219,0 0.379,-0.047 0.457,-0.188 0.106,0.141 0.325,0.188 0.465,0.188 0.77,0 1.055,-0.407 1.16,-0.742 0.008,-0.047 0.02,-0.086 0.02,-0.114 0,-0.258 -0.266,-0.39 -0.484,-0.39"
                 id="path34"
                 style="fill:#2b2b2a;fill-opacity:1;fill-rule:nonzero;stroke:none" /><path
                 d="m 15.098,5.445 c 0,0.371 -0.297,0.664 -0.668,0.664 l -0.075,0 c -0.371,0 -0.664,-0.293 -0.664,-0.664 l 0,-1.558 c 0,-0.344 0.293,-0.668 0.664,-0.668 l 0.075,0 c 0.371,0 0.668,0.297 0.668,0.668 l 0,1.558 z m -0.668,-3.121 -0.067,0 c -0.148,0 -0.472,0.02 -0.672,0.238 C 13.625,2.41 13.5,2.324 13.234,2.324 c -0.226,0 -0.457,0.153 -0.457,0.449 l 0,5.77 c 0,0.305 0.231,0.457 0.457,0.457 0.227,0 0.457,-0.152 0.457,-0.457 l 0,-1.777 c 0.2,0.179 0.524,0.246 0.672,0.246 l 0.067,0 c 0.875,0 1.582,-0.692 1.582,-1.567 l 0,-1.558 c 0,-0.875 -0.707,-1.563 -1.582,-1.563"
                 id="path36"
                 style="fill:#2b2b2a;fill-opacity:1;fill-rule:nonzero;stroke:none" /><path
                 d="M 19.438,4.484 C 18.773,4.305 18.012,4.34 18.012,3.762 c 0,-0.313 0.246,-0.543 0.676,-0.543 l 0.085,0 c 0.372,0 0.665,0.297 0.665,0.668 l 0,0.597 z m 1.007,-2.16 c -0.312,0 -0.57,0.184 -0.715,0.344 C 19.465,2.449 19.145,2.324 18.773,2.324 l -0.085,0 c -0.79,0 -1.559,0.43 -1.559,1.418 l 0,0.047 c 0,1.332 1.512,1.371 2.183,1.523 0.118,0.028 0.126,0.114 0.126,0.18 0,0.379 -0.274,0.617 -0.618,0.617 l -0.066,0 c -0.277,0 -0.496,-0.093 -0.617,-0.371 -0.078,-0.191 -0.25,-0.273 -0.399,-0.273 -0.238,0 -0.476,0.187 -0.476,0.445 0,0.067 0.008,0.133 0.039,0.199 0.301,0.696 0.941,0.903 1.453,0.903 l 0.066,0 c 0.762,0 1.532,-0.551 1.532,-1.434 l 0,-2.101 c 0,-0.145 0.007,-0.219 0.152,-0.258 0.254,-0.055 0.371,-0.254 0.371,-0.457 0,-0.219 -0.152,-0.438 -0.43,-0.438"
                 id="path38"
                 style="fill:#2b2b2a;fill-opacity:1;fill-rule:nonzero;stroke:none" /><path
                 d="m 24.758,2.324 c -0.219,0 -0.457,0.145 -0.457,0.449 l 0,2.672 c 0,0.371 -0.285,0.664 -0.656,0.664 l -0.086,0 c -0.368,0 -0.664,-0.293 -0.664,-0.664 l 0,-2.672 c 0,-0.304 -0.227,-0.449 -0.457,-0.449 -0.227,0 -0.454,0.145 -0.454,0.449 l 0,3.782 c 0,0.304 0.227,0.457 0.454,0.457 0.183,0 0.343,-0.047 0.457,-0.246 0.265,0.257 0.464,0.246 0.664,0.246 l 0.086,0 c 0.941,0 1.57,-0.692 1.57,-1.567 l 0,-2.672 c 0,-0.304 -0.227,-0.449 -0.457,-0.449"
                 id="path40"
                 style="fill:#2b2b2a;fill-opacity:1;fill-rule:nonzero;stroke:none" /><path
                 d="m 28.738,5.445 c 0,0.371 -0.293,0.664 -0.668,0.664 l -0.074,0 c -0.371,0 -0.664,-0.293 -0.664,-0.664 l 0,-1.558 c 0,-0.371 0.293,-0.668 0.664,-0.668 l 0.074,0 c 0.375,0 0.668,0.324 0.668,0.668 l 0,1.558 z m 0.457,-3.121 c -0.265,0 -0.39,0.086 -0.457,0.238 C 28.539,2.344 28.215,2.324 28.062,2.324 l -0.066,0 c -0.875,0 -1.578,0.688 -1.578,1.563 l 0,1.558 c 0,0.875 0.703,1.567 1.578,1.567 l 0.066,0 c 0.153,0 0.477,-0.067 0.676,-0.246 l 0,1.777 c 0,0.305 0.227,0.457 0.457,0.457 0.227,0 0.457,-0.152 0.457,-0.457 l 0,-5.77 c 0,-0.296 -0.23,-0.449 -0.457,-0.449"
                 id="path42"
                 style="fill:#2b2b2a;fill-opacity:1;fill-rule:nonzero;stroke:none" /><path
                 d="m 35.57,2.324 -0.097,0 c -0.996,0 -1.852,0.676 -1.852,1.848 0,0.301 0.227,0.453 0.453,0.453 0.231,0 0.457,-0.152 0.457,-0.453 0,-0.61 0.403,-0.953 0.942,-0.953 l 0.097,0 c 0.559,0 0.977,0.304 0.977,0.867 0,1.328 -2.871,1.34 -2.871,3.059 l 0,0.171 C 33.676,8.344 34.617,9 35.484,9 l 0.086,0 c 0.91,0 1.793,-0.484 1.793,-1.457 l 0,-0.055 c 0,-0.258 -0.179,-0.429 -0.433,-0.429 -0.27,0 -0.418,0.164 -0.477,0.418 -0.113,0.515 -0.379,0.621 -0.883,0.621 l -0.086,0 c -0.418,0 -0.894,-0.266 -0.894,-0.735 l 0,-0.187 c 0,-0.914 2.871,-1.125 2.871,-3.09 0,-1.074 -0.828,-1.762 -1.891,-1.762"
                 id="path44"
                 style="fill:#2b2b2a;fill-opacity:1;fill-rule:nonzero;stroke:none" /><path
                 d="m 40.301,2.324 -0.078,0 c -0.875,0 -1.578,0.656 -1.578,1.531 l 0,1.618 c 0,0.863 0.703,1.539 1.578,1.539 l 0.078,0 c 0.875,0 1.578,-0.645 1.578,-1.52 0,-0.304 -0.231,-0.457 -0.457,-0.457 -0.231,0 -0.457,0.153 -0.457,0.457 0,0.371 -0.293,0.617 -0.664,0.617 l -0.078,0 c -0.371,0 -0.664,-0.265 -0.664,-0.636 l 0,-1.618 c 0,-0.371 0.293,-0.636 0.664,-0.636 l 0.078,0 c 0.371,0 0.664,0.246 0.664,0.617 0,0.305 0.226,0.457 0.457,0.457 0.226,0 0.457,-0.152 0.457,-0.457 0,-0.883 -0.703,-1.512 -1.578,-1.512"
                 id="path46"
                 style="fill:#2b2b2a;fill-opacity:1;fill-rule:nonzero;stroke:none" /><path
                 d="m 45.887,2.324 c -0.231,0 -0.457,0.145 -0.457,0.449 l 0,2.68 c 0,0.445 -0.332,0.656 -0.676,0.656 l -0.027,0 c -0.446,0 -0.704,-0.304 -0.704,-0.711 l 0,-2.625 c 0,-0.304 -0.226,-0.449 -0.457,-0.449 -0.226,0 -0.457,0.145 -0.457,0.449 l 0,5.77 C 43.109,8.848 43.34,9 43.566,9 43.797,9 44.023,8.848 44.023,8.543 l 0,-1.777 c 0.2,0.179 0.524,0.246 0.665,0.246 l 0.117,0 c 0.902,0 1.539,-0.703 1.539,-1.559 l 0,-2.68 c 0,-0.304 -0.231,-0.449 -0.457,-0.449"
                 id="path48"
                 style="fill:#2b2b2a;fill-opacity:1;fill-rule:nonzero;stroke:none" /><path
                 d="M 52.938,6.422 51.836,2.609 C 51.77,2.391 51.566,2.324 51.406,2.324 l -0.039,0 c -0.179,0 -0.359,0.067 -0.426,0.285 l -0.8,2.5 -0.817,-2.5 C 49.25,2.375 49.059,2.324 48.895,2.324 l -0.028,0 c -0.179,0 -0.371,0.086 -0.426,0.285 l -1.093,3.813 c -0.012,0.031 -0.02,0.078 -0.02,0.144 0,0.258 0.192,0.446 0.465,0.446 0.184,0 0.352,-0.086 0.418,-0.313 l 0.734,-2.453 0.77,2.453 c 0.066,0.199 0.152,0.313 0.426,0.313 l 0.039,0 c 0.265,0 0.359,-0.114 0.429,-0.313 l 0.758,-2.453 0.703,2.453 c 0.067,0.227 0.239,0.313 0.418,0.313 0.278,0 0.469,-0.188 0.469,-0.446 0,-0.066 -0.012,-0.113 -0.019,-0.144"
                 id="path50"
                 style="fill:#2b2b2a;fill-opacity:1;fill-rule:nonzero;stroke:none" /><path
                 d="m 56.289,5.445 c 0,0.387 -0.312,0.664 -0.648,0.664 l -0.086,0 c -0.371,0 -0.672,-0.265 -0.672,-0.636 l 0,-0.43 1.406,0 0,0.402 z m 0.457,-1.246 -1.863,0 0,-0.344 c 0,-0.371 0.293,-0.636 0.664,-0.636 l 0.074,0 c 0.656,0 0.496,0.656 1,0.656 0.238,0 0.477,-0.152 0.477,-0.41 0,-0.055 -0.02,-0.121 -0.047,-0.207 -0.305,-0.61 -0.735,-0.934 -1.43,-0.934 l -0.074,0 c -0.875,0 -1.578,0.656 -1.578,1.531 l 0,1.618 c 0,0.863 0.722,1.539 1.578,1.539 l 0.074,0 c 0.875,0 1.578,-0.657 1.578,-1.567 l 0,-0.789 C 57.199,4.418 57,4.199 56.746,4.199"
                 id="path52"
                 style="fill:#2b2b2a;fill-opacity:1;fill-rule:nonzero;stroke:none" /><path
                 d="m 58.898,7.898 c -0.226,0 -0.445,0.149 -0.445,0.446 l 0,0.199 c 0,0.305 0.219,0.457 0.445,0.457 0.231,0 0.457,-0.152 0.457,-0.457 l 0,-0.199 c 0,-0.297 -0.226,-0.446 -0.457,-0.446 m 0,-5.574 c -0.226,0 -0.453,0.145 -0.453,0.449 l 0,3.782 c 0,0.304 0.227,0.457 0.453,0.457 0.219,0 0.457,-0.153 0.457,-0.457 l 0,-3.782 c 0,-0.304 -0.238,-0.449 -0.457,-0.449"
                 id="path54"
                 style="fill:#2b2b2a;fill-opacity:1;fill-rule:nonzero;stroke:none" /><path
                 d="m 63.223,2.375 -2.223,0 c -0.238,0 -0.477,0.199 -0.477,0.504 0,0.113 0.02,0.219 0.114,0.371 l 1.769,2.801 -1.39,0 c -0.301,0 -0.454,0.23 -0.454,0.457 0,0.23 0.153,0.449 0.454,0.449 l 2.121,0 c 0.238,0 0.476,-0.211 0.476,-0.449 0,-0.18 -0.011,-0.274 -0.144,-0.485 l -1.699,-2.746 1.453,0 c 0.304,0 0.449,-0.218 0.449,-0.449 0,-0.226 -0.145,-0.453 -0.449,-0.453"
                 id="path56"
                 style="fill:#2b2b2a;fill-opacity:1;fill-rule:nonzero;stroke:none" /><path
                 d="m 66.992,5.445 c 0,0.387 -0.312,0.664 -0.644,0.664 l -0.086,0 c -0.371,0 -0.676,-0.265 -0.676,-0.636 l 0,-0.43 1.406,0 0,0.402 z m 0.457,-1.246 -1.863,0 0,-0.344 c 0,-0.371 0.297,-0.636 0.668,-0.636 l 0.074,0 c 0.656,0 0.496,0.656 1,0.656 0.234,0 0.473,-0.152 0.473,-0.41 0,-0.055 -0.02,-0.121 -0.047,-0.207 -0.305,-0.61 -0.731,-0.934 -1.426,-0.934 l -0.074,0 c -0.875,0 -1.578,0.656 -1.578,1.531 l 0,1.618 c 0,0.863 0.722,1.539 1.578,1.539 l 0.074,0 c 0.875,0 1.578,-0.657 1.578,-1.567 l 0,-0.789 c 0,-0.238 -0.199,-0.457 -0.457,-0.457"
                 id="path58"
                 style="fill:#2b2b2a;fill-opacity:1;fill-rule:nonzero;stroke:none" /><path
                 d="m 71.164,5.766 c -0.418,0 -0.172,0.343 -0.676,0.343 -0.265,0 -0.484,-0.093 -0.484,-0.425 l 0,-2.891 c 0,-0.316 -0.238,-0.469 -0.465,-0.469 -0.23,0 -0.445,0.153 -0.445,0.469 l 0,3.762 c 0,0.304 0.215,0.457 0.453,0.457 0.219,0 0.383,-0.047 0.457,-0.188 0.105,0.141 0.324,0.188 0.465,0.188 0.773,0 1.058,-0.407 1.16,-0.742 0.012,-0.047 0.019,-0.086 0.019,-0.114 0,-0.258 -0.265,-0.39 -0.484,-0.39"
                 id="path60"
                 style="fill:#2b2b2a;fill-opacity:1;fill-rule:nonzero;stroke:none" /><path
                 d="M 81.57,8.449 80.344,2.707 C 80.285,2.441 80.047,2.324 79.812,2.324 c -0.257,0 -0.488,0.117 -0.542,0.371 l -0.989,4.27 -0.988,-4.27 C 77.234,2.441 76.996,2.324 76.762,2.324 c -0.239,0 -0.489,0.125 -0.543,0.383 L 74.992,8.449 C 74.98,8.477 74.98,8.504 74.98,8.551 74.98,8.809 75.184,9 75.449,9 75.648,9 75.828,8.895 75.887,8.637 l 0.89,-4.153 0.989,4.133 C 77.824,8.875 78.051,9 78.281,9 78.508,9 78.738,8.875 78.793,8.617 l 0.988,-4.133 0.895,4.153 C 80.734,8.895 80.914,9 81.113,9 c 0.266,0 0.465,-0.191 0.465,-0.449 0,-0.047 0,-0.074 -0.008,-0.102"
                 id="path62"
                 style="fill:#2b2b2a;fill-opacity:1;fill-rule:nonzero;stroke:none" /><path
                 d="m 83.246,7.898 c -0.226,0 -0.445,0.149 -0.445,0.446 l 0,0.199 C 82.801,8.848 83.02,9 83.246,9 83.477,9 83.703,8.848 83.703,8.543 l 0,-0.199 c 0,-0.297 -0.226,-0.446 -0.457,-0.446 m 0,-5.574 c -0.226,0 -0.457,0.145 -0.457,0.449 l 0,3.782 c 0,0.304 0.231,0.457 0.457,0.457 0.219,0 0.457,-0.153 0.457,-0.457 l 0,-3.782 c 0,-0.304 -0.238,-0.449 -0.457,-0.449"
                 id="path64"
                 style="fill:#2b2b2a;fill-opacity:1;fill-rule:nonzero;stroke:none" /><path
                 d="m 86.621,2.324 -0.164,0 c -0.605,0 -1.234,0.352 -1.519,0.973 -0.028,0.066 -0.047,0.133 -0.047,0.207 0,0.258 0.226,0.437 0.464,0.437 0.457,0 0.465,-0.722 1.102,-0.722 l 0.164,0 c 0.531,0 0.742,0.219 0.742,0.523 0,0.512 -0.504,0.563 -0.894,0.637 -0.657,0.125 -1.485,0.398 -1.485,1.207 l 0,0.164 c 0,0.938 1.028,1.262 1.637,1.262 l 0.035,0 c 0.848,0 1.477,-0.485 1.477,-0.817 0,-0.218 -0.184,-0.418 -0.438,-0.418 -0.363,0 -0.437,0.332 -1.039,0.332 l -0.035,0 c -0.418,0 -0.723,-0.171 -0.723,-0.39 l 0,-0.094 c 0,-0.684 2.375,-0.113 2.375,-1.883 0,-1.082 -0.949,-1.418 -1.652,-1.418"
                 id="path66"
                 style="fill:#2b2b2a;fill-opacity:1;fill-rule:nonzero;stroke:none" /><path
                 d="m 91.027,2.324 -0.16,0 c -0.609,0 -1.234,0.352 -1.523,0.973 -0.028,0.066 -0.047,0.133 -0.047,0.207 0,0.258 0.23,0.437 0.469,0.437 0.453,0 0.464,-0.722 1.101,-0.722 l 0.16,0 c 0.532,0 0.743,0.219 0.743,0.523 0,0.512 -0.504,0.563 -0.895,0.637 -0.656,0.125 -1.48,0.398 -1.48,1.207 l 0,0.164 c 0,0.938 1.027,1.262 1.632,1.262 l 0.039,0 c 0.848,0 1.473,-0.485 1.473,-0.817 0,-0.218 -0.18,-0.418 -0.437,-0.418 -0.36,0 -0.438,0.332 -1.036,0.332 l -0.039,0 c -0.418,0 -0.722,-0.171 -0.722,-0.39 l 0,-0.094 c 0,-0.684 2.379,-0.113 2.379,-1.883 0,-1.082 -0.954,-1.418 -1.657,-1.418"
                 id="path68"
                 style="fill:#2b2b2a;fill-opacity:1;fill-rule:nonzero;stroke:none" /><path
                 d="m 96.109,5.445 c 0,0.387 -0.312,0.664 -0.644,0.664 l -0.086,0 c -0.371,0 -0.676,-0.265 -0.676,-0.636 l 0,-0.43 1.406,0 0,0.402 z m 0.457,-1.246 -1.863,0 0,-0.344 c 0,-0.371 0.297,-0.636 0.668,-0.636 l 0.074,0 c 0.657,0 0.496,0.656 1,0.656 0.235,0 0.473,-0.152 0.473,-0.41 0,-0.055 -0.02,-0.121 -0.047,-0.207 -0.305,-0.61 -0.73,-0.934 -1.426,-0.934 l -0.074,0 c -0.875,0 -1.578,0.656 -1.578,1.531 l 0,1.618 c 0,0.863 0.723,1.539 1.578,1.539 l 0.074,0 c 0.875,0 1.578,-0.657 1.578,-1.567 l 0,-0.789 c 0,-0.238 -0.199,-0.457 -0.457,-0.457"
                 id="path70"
                 style="fill:#2b2b2a;fill-opacity:1;fill-rule:nonzero;stroke:none" /><path
                 d="m 101.004,2.324 c -0.219,0 -0.457,0.145 -0.457,0.449 l 0,2.672 c 0,0.371 -0.285,0.664 -0.656,0.664 l -0.086,0 c -0.367,0 -0.664,-0.293 -0.664,-0.664 l 0,-2.672 c 0,-0.304 -0.227,-0.449 -0.457,-0.449 -0.227,0 -0.454,0.145 -0.454,0.449 l 0,3.782 c 0,0.304 0.227,0.457 0.454,0.457 0.179,0 0.343,-0.047 0.457,-0.246 0.265,0.257 0.464,0.246 0.664,0.246 l 0.086,0 c 0.941,0 1.57,-0.692 1.57,-1.567 l 0,-2.672 c 0,-0.304 -0.227,-0.449 -0.457,-0.449"
                 id="path72"
                 style="fill:#2b2b2a;fill-opacity:1;fill-rule:nonzero;stroke:none" /><path
                 d="m 104.301,2.324 -0.164,0 c -0.606,0 -1.235,0.352 -1.52,0.973 -0.027,0.066 -0.047,0.133 -0.047,0.207 0,0.258 0.227,0.437 0.465,0.437 0.457,0 0.465,-0.722 1.102,-0.722 l 0.164,0 c 0.531,0 0.742,0.219 0.742,0.523 0,0.512 -0.504,0.563 -0.895,0.637 -0.656,0.125 -1.484,0.398 -1.484,1.207 l 0,0.164 c 0,0.938 1.027,1.262 1.637,1.262 l 0.035,0 c 0.848,0 1.476,-0.485 1.476,-0.817 0,-0.218 -0.183,-0.418 -0.437,-0.418 -0.363,0 -0.437,0.332 -1.039,0.332 l -0.035,0 c -0.418,0 -0.723,-0.171 -0.723,-0.39 l 0,-0.094 c 0,-0.684 2.375,-0.113 2.375,-1.883 0,-1.082 -0.949,-1.418 -1.652,-1.418"
                 id="path74"
                 style="fill:#2b2b2a;fill-opacity:1;fill-rule:nonzero;stroke:none" /><path
                 d="m 108.715,2.324 -0.074,0 c -0.875,0 -1.579,0.656 -1.579,1.531 l 0,1.618 c 0,0.863 0.704,1.539 1.579,1.539 l 0.074,0 c 0.875,0 1.578,-0.645 1.578,-1.52 0,-0.304 -0.227,-0.457 -0.453,-0.457 -0.231,0 -0.457,0.153 -0.457,0.457 0,0.371 -0.297,0.617 -0.668,0.617 l -0.074,0 c -0.371,0 -0.664,-0.265 -0.664,-0.636 l 0,-1.618 c 0,-0.371 0.293,-0.636 0.664,-0.636 l 0.074,0 c 0.371,0 0.668,0.246 0.668,0.617 0,0.305 0.226,0.457 0.457,0.457 0.226,0 0.453,-0.152 0.453,-0.457 0,-0.883 -0.703,-1.512 -1.578,-1.512"
                 id="path76"
                 style="fill:#2b2b2a;fill-opacity:1;fill-rule:nonzero;stroke:none" /><path
                 d="m 114.305,2.324 c -0.231,0 -0.457,0.145 -0.457,0.449 l 0,2.68 c 0,0.445 -0.332,0.656 -0.676,0.656 l -0.027,0 c -0.45,0 -0.704,-0.304 -0.704,-0.711 l 0,-2.625 c 0,-0.304 -0.23,-0.449 -0.457,-0.449 -0.226,0 -0.457,0.145 -0.457,0.449 l 0,5.77 c 0,0.305 0.231,0.457 0.457,0.457 0.227,0 0.457,-0.152 0.457,-0.457 l 0,-1.777 c 0.2,0.179 0.524,0.246 0.664,0.246 l 0.114,0 c 0.906,0 1.543,-0.703 1.543,-1.559 l 0,-2.68 c 0,-0.304 -0.231,-0.449 -0.457,-0.449"
                 id="path78"
                 style="fill:#2b2b2a;fill-opacity:1;fill-rule:nonzero;stroke:none" /><path
                 d="m 118.168,4.484 c -0.664,-0.179 -1.426,-0.144 -1.426,-0.722 0,-0.313 0.25,-0.543 0.676,-0.543 l 0.086,0 c 0.371,0 0.664,0.297 0.664,0.668 l 0,0.597 z m 1.008,-2.16 c -0.313,0 -0.571,0.184 -0.711,0.344 -0.266,-0.219 -0.59,-0.344 -0.961,-0.344 l -0.086,0 c -0.789,0 -1.559,0.43 -1.559,1.418 l 0,0.047 c 0,1.332 1.512,1.371 2.188,1.523 0.113,0.028 0.121,0.114 0.121,0.18 0,0.379 -0.273,0.617 -0.617,0.617 l -0.067,0 c -0.273,0 -0.492,-0.093 -0.617,-0.371 -0.074,-0.191 -0.246,-0.273 -0.398,-0.273 -0.239,0 -0.477,0.187 -0.477,0.445 0,0.067 0.012,0.133 0.039,0.199 0.305,0.696 0.942,0.903 1.453,0.903 l 0.067,0 c 0.761,0 1.531,-0.551 1.531,-1.434 l 0,-2.101 c 0,-0.145 0.012,-0.219 0.152,-0.258 0.258,-0.055 0.371,-0.254 0.371,-0.457 0,-0.219 -0.152,-0.438 -0.429,-0.438"
                 id="path80"
                 style="fill:#2b2b2a;fill-opacity:1;fill-rule:nonzero;stroke:none" /><path
                 d="m 122.148,8.098 c -0.226,0 -0.371,-0.184 -0.371,-0.41 l 0,-0.704 0.325,0 c 0.304,0 0.445,-0.218 0.445,-0.445 0,-0.23 -0.141,-0.457 -0.445,-0.457 l -0.325,0 0,-3.309 c 0,-0.304 -0.226,-0.449 -0.453,-0.449 -0.23,0 -0.457,0.145 -0.457,0.449 l 0,3.309 -0.086,0 c -0.304,0 -0.445,0.227 -0.445,0.457 0,0.227 0.141,0.445 0.445,0.445 l 0.086,0 0,0.711 c 0,0.723 0.445,1.305 1.281,1.305 0.305,0 0.45,-0.219 0.45,-0.449 0,-0.227 -0.145,-0.453 -0.45,-0.453"
                 id="path82"
                 style="fill:#2b2b2a;fill-opacity:1;fill-rule:nonzero;stroke:none" /><path
                 d="m 125.379,2.355 c -0.723,0 -1.293,0.571 -1.293,1.293 l 0,2.434 -0.152,0 c -0.305,0 -0.454,0.227 -0.454,0.457 0,0.219 0.149,0.445 0.454,0.445 l 0.152,0 0,1.559 c 0,0.305 0.23,0.457 0.449,0.457 C 124.762,9 125,8.848 125,8.543 l 0,-1.559 0.332,0 c 0.305,0 0.457,-0.226 0.457,-0.445 0,-0.23 -0.152,-0.457 -0.457,-0.457 l -0.332,0 0,-2.434 c 0,-0.152 0.152,-0.398 0.379,-0.398 0.305,0 0.457,-0.23 0.457,-0.449 0,-0.227 -0.152,-0.446 -0.457,-0.446"
                 id="path84"
                 style="fill:#2b2b2a;fill-opacity:1;fill-rule:nonzero;stroke:none" /><path
                 d="m 128.496,2.324 -0.164,0 c -0.605,0 -1.234,0.352 -1.52,0.973 -0.027,0.066 -0.046,0.133 -0.046,0.207 0,0.258 0.226,0.437 0.464,0.437 0.458,0 0.469,-0.722 1.102,-0.722 l 0.164,0 c 0.531,0 0.742,0.219 0.742,0.523 0,0.512 -0.504,0.563 -0.894,0.637 -0.656,0.125 -1.485,0.398 -1.485,1.207 l 0,0.164 c 0,0.938 1.028,1.262 1.637,1.262 l 0.039,0 c 0.844,0 1.473,-0.485 1.473,-0.817 0,-0.218 -0.18,-0.418 -0.438,-0.418 -0.363,0 -0.437,0.332 -1.035,0.332 l -0.039,0 c -0.418,0 -0.723,-0.171 -0.723,-0.39 l 0,-0.094 c 0,-0.684 2.375,-0.113 2.375,-1.883 0,-1.082 -0.949,-1.418 -1.652,-1.418"
                 id="path86"
                 style="fill:#2b2b2a;fill-opacity:1;fill-rule:nonzero;stroke:none" /><path
                 d="m 133.57,4.457 -2.015,0 c -0.305,0 -0.457,0.227 -0.457,0.453 0,0.219 0.152,0.449 0.457,0.449 l 2.015,0 c 0.305,0 0.446,-0.23 0.446,-0.449 0,-0.226 -0.141,-0.453 -0.446,-0.453"
                 id="path88"
                 style="fill:#2b2b2a;fill-opacity:1;fill-rule:nonzero;stroke:none" /><path
                 d="m 138.129,7.184 c 0,0.531 -0.418,0.914 -0.941,0.914 l -0.094,0 c -0.524,0 -0.942,-0.391 -0.942,-0.914 l 0,-3.043 c 0,-0.532 0.418,-0.922 0.942,-0.922 l 0.094,0 c 0.523,0 0.941,0.39 0.941,0.922 l 0,3.043 z m -0.941,-4.86 -0.094,0 c -1.016,0 -1.856,0.781 -1.856,1.817 l 0,3.043 c 0,1.027 0.84,1.816 1.864,1.816 l 0.086,0 c 1.027,0 1.855,-0.789 1.855,-1.816 l 0,-3.043 c 0,-1.036 -0.828,-1.817 -1.855,-1.817"
                 id="path90"
                 style="fill:#2b2b2a;fill-opacity:1;fill-rule:nonzero;stroke:none" /><path
                 d="m 141.746,2.355 c -0.836,0 -1.289,0.457 -1.289,1.293 l 0,4.895 c 0,0.266 0.188,0.457 0.453,0.457 0.258,0 0.457,-0.191 0.457,-0.449 l 0,-4.903 c 0,-0.218 0.164,-0.398 0.379,-0.398 0.258,0 0.457,-0.184 0.457,-0.449 0,-0.266 -0.187,-0.446 -0.457,-0.446"
                 id="path92"
                 style="fill:#2b2b2a;fill-opacity:1;fill-rule:nonzero;stroke:none" /><path
                 d="m 146.102,6.422 -1.676,-5.141 c -0.254,-0.789 -0.742,-0.953 -1.168,-0.953 -0.418,0 -0.516,0.203 -0.516,0.457 0,0.238 0.098,0.449 0.488,0.449 0.219,0 0.321,0.18 0.407,0.446 l 0.418,1.226 -1.215,3.496 c -0.02,0.059 -0.031,0.118 -0.031,0.172 0,0.258 0.191,0.438 0.468,0.438 0.18,0 0.34,-0.086 0.418,-0.305 l 0.817,-2.328 0.73,2.32 c 0.07,0.219 0.238,0.313 0.418,0.313 0.27,0 0.469,-0.2 0.469,-0.438 0,-0.047 -0.02,-0.101 -0.027,-0.152"
                 id="path94"
                 style="fill:#2b2b2a;fill-opacity:1;fill-rule:nonzero;stroke:none" /><path
                 d="m 152.359,2.324 c -0.218,0 -0.445,0.145 -0.445,0.449 l 0,2.672 c 0,0.371 -0.305,0.664 -0.676,0.664 l -0.082,0 c -0.371,0 -0.676,-0.293 -0.676,-0.664 l 0,-2.652 c 0,-0.316 -0.238,-0.469 -0.457,-0.469 -0.226,0 -0.457,0.153 -0.457,0.469 l 0,2.652 c 0,0.371 -0.304,0.664 -0.675,0.664 l -0.086,0 c -0.371,0 -0.672,-0.293 -0.672,-0.664 l 0,-2.672 c 0,-0.304 -0.231,-0.449 -0.457,-0.449 -0.219,0 -0.457,0.145 -0.457,0.449 l 0,3.782 c 0,0.304 0.226,0.457 0.457,0.457 0.219,0 0.34,-0.047 0.457,-0.246 0.14,0.152 0.418,0.246 0.672,0.246 l 0.086,0 c 0.496,0 0.836,-0.172 1.132,-0.465 0.293,0.293 0.684,0.465 1.133,0.465 l 0.082,0 c 1.067,0 1.59,-0.59 1.59,-1.539 l 0,-2.7 c 0,-0.304 -0.238,-0.449 -0.469,-0.449"
                 id="path96"
                 style="fill:#2b2b2a;fill-opacity:1;fill-rule:nonzero;stroke:none" /><path
                 d="m 156.52,5.445 c 0,0.371 -0.293,0.664 -0.665,0.664 l -0.078,0 c -0.367,0 -0.664,-0.324 -0.664,-0.664 l 0,-1.558 c 0,-0.371 0.297,-0.668 0.664,-0.668 l 0.078,0 c 0.372,0 0.665,0.297 0.665,0.668 l 0,1.558 z m -0.665,-3.121 -0.066,0 c -0.152,0 -0.477,0.059 -0.676,0.238 l 0,-1.777 c 0,-0.305 -0.226,-0.457 -0.457,-0.457 -0.226,0 -0.453,0.152 -0.453,0.457 l 0,5.77 c 0,0.297 0.227,0.457 0.453,0.457 0.27,0 0.391,-0.094 0.457,-0.246 0.199,0.218 0.524,0.246 0.676,0.246 l 0.066,0 c 0.875,0 1.579,-0.703 1.579,-1.567 l 0,-1.558 c 0,-0.887 -0.704,-1.563 -1.579,-1.563"
                 id="path98"
                 style="fill:#2b2b2a;fill-opacity:1;fill-rule:nonzero;stroke:none" /><path
                 d="m 159.199,7.898 c -0.23,0 -0.449,0.149 -0.449,0.446 l 0,0.199 c 0,0.305 0.219,0.457 0.449,0.457 0.227,0 0.457,-0.152 0.457,-0.457 l 0,-0.199 c 0,-0.297 -0.23,-0.446 -0.457,-0.446 m 0,-5.574 c -0.23,0 -0.457,0.145 -0.457,0.449 l 0,3.782 c 0,0.304 0.227,0.457 0.457,0.457 0.219,0 0.457,-0.153 0.457,-0.457 l 0,-3.782 c 0,-0.304 -0.238,-0.449 -0.457,-0.449"
                 id="path100"
                 style="fill:#2b2b2a;fill-opacity:1;fill-rule:nonzero;stroke:none" /><path
                 d="m 163.172,4.484 c -0.668,-0.179 -1.426,-0.144 -1.426,-0.722 0,-0.313 0.246,-0.543 0.672,-0.543 l 0.086,0 c 0.371,0 0.668,0.297 0.668,0.668 l 0,0.597 z m 1.004,-2.16 c -0.313,0 -0.571,0.184 -0.711,0.344 -0.266,-0.219 -0.59,-0.344 -0.961,-0.344 l -0.086,0 c -0.789,0 -1.559,0.43 -1.559,1.418 l 0,0.047 c 0,1.332 1.512,1.371 2.188,1.523 0.113,0.028 0.125,0.114 0.125,0.18 0,0.379 -0.277,0.617 -0.621,0.617 l -0.067,0 c -0.273,0 -0.492,-0.093 -0.617,-0.371 -0.074,-0.191 -0.246,-0.273 -0.398,-0.273 -0.239,0 -0.477,0.187 -0.477,0.445 0,0.067 0.012,0.133 0.039,0.199 0.305,0.696 0.942,0.903 1.453,0.903 l 0.067,0 c 0.761,0 1.531,-0.551 1.531,-1.434 l 0,-2.101 c 0,-0.145 0.012,-0.219 0.152,-0.258 0.258,-0.055 0.371,-0.254 0.371,-0.457 0,-0.219 -0.152,-0.438 -0.429,-0.438"
                 id="path102"
                 style="fill:#2b2b2a;fill-opacity:1;fill-rule:nonzero;stroke:none" /><path
                 d="m 167.891,5.445 c 0,0.371 -0.293,0.664 -0.664,0.664 l -0.075,0 c -0.371,0 -0.668,-0.293 -0.668,-0.664 l 0,-1.558 c 0,-0.371 0.297,-0.668 0.668,-0.668 l 0.075,0 c 0.371,0 0.664,0.324 0.664,0.668 l 0,1.558 z m 0.457,-3.121 c -0.266,0 -0.391,0.086 -0.457,0.238 -0.2,-0.218 -0.524,-0.238 -0.676,-0.238 l -0.063,0 c -0.875,0 -1.578,0.688 -1.578,1.563 l 0,1.558 c 0,0.875 0.703,1.567 1.578,1.567 l 0.063,0 c 0.152,0 0.476,-0.067 0.676,-0.246 l 0,1.777 c 0,0.305 0.23,0.457 0.457,0.457 0.23,0 0.457,-0.152 0.457,-0.457 l 0,-5.77 c 0,-0.296 -0.227,-0.449 -0.457,-0.449"
                 id="path104"
                 style="fill:#2b2b2a;fill-opacity:1;fill-rule:nonzero;stroke:none" /><path
                 d="m 172.461,5.445 c 0,0.387 -0.313,0.664 -0.645,0.664 l -0.086,0 c -0.371,0 -0.675,-0.265 -0.675,-0.636 l 0,-0.43 1.406,0 0,0.402 z m 0.457,-1.246 -1.863,0 0,-0.344 c 0,-0.371 0.293,-0.636 0.664,-0.636 l 0.078,0 c 0.656,0 0.492,0.656 0.996,0.656 0.238,0 0.477,-0.152 0.477,-0.41 0,-0.055 -0.02,-0.121 -0.047,-0.207 -0.305,-0.61 -0.731,-0.934 -1.426,-0.934 l -0.078,0 c -0.875,0 -1.578,0.656 -1.578,1.531 l 0,1.618 c 0,0.863 0.722,1.539 1.578,1.539 l 0.078,0 c 0.875,0 1.578,-0.657 1.578,-1.567 l 0,-0.789 c 0,-0.238 -0.199,-0.457 -0.457,-0.457"
                 id="path106"
                 style="fill:#2b2b2a;fill-opacity:1;fill-rule:nonzero;stroke:none" /><path
                 d="m 177.355,2.324 c -0.218,0 -0.457,0.145 -0.457,0.449 l 0,2.672 c 0,0.371 -0.285,0.664 -0.656,0.664 l -0.086,0 c -0.371,0 -0.664,-0.293 -0.664,-0.664 l 0,-2.672 c 0,-0.304 -0.23,-0.449 -0.457,-0.449 -0.226,0 -0.457,0.145 -0.457,0.449 l 0,3.782 c 0,0.304 0.231,0.457 0.457,0.457 0.18,0 0.34,-0.047 0.457,-0.246 0.266,0.257 0.465,0.246 0.664,0.246 l 0.086,0 c 0.942,0 1.57,-0.692 1.57,-1.567 l 0,-2.672 c 0,-0.304 -0.23,-0.449 -0.457,-0.449"
                 id="path108"
                 style="fill:#2b2b2a;fill-opacity:1;fill-rule:nonzero;stroke:none" /><path
                 d="m 183.25,4.578 c -0.543,0 -0.988,0.449 -0.988,1 0,0.539 0.445,0.988 0.988,0.988 0.559,0 0.988,-0.449 0.988,-0.988 0,-0.551 -0.429,-1 -0.988,-1"
                 id="path110"
                 style="fill:#2b2b2a;fill-opacity:1;fill-rule:nonzero;stroke:none" /><path
                 d="m 190.938,2.324 -0.094,0 c -0.961,0 -1.739,0.762 -1.739,1.731 l 0,4.707 c 0,0.16 0.114,0.238 0.239,0.238 0.113,0 0.226,-0.078 0.226,-0.238 l 0,-4.707 c 0,-0.711 0.563,-1.274 1.274,-1.274 l 0.094,0 c 0.714,0 1.273,0.563 1.273,1.274 l 0,4.707 c 0,0.16 0.117,0.238 0.23,0.238 0.121,0 0.239,-0.078 0.239,-0.238 l 0,-4.707 c 0,-0.969 -0.782,-1.731 -1.742,-1.731"
                 id="path112"
                 style="fill:#2b2b2a;fill-opacity:1;fill-rule:nonzero;stroke:none" /><path
                 d="m 197.41,2.324 c -0.113,0 -0.238,0.067 -0.238,0.231 l 0,2.984 c 0,0.57 -0.438,1.008 -1.008,1.008 l -0.086,0 c -0.57,0 -1.016,-0.465 -1.016,-1.035 l 0,-2.957 c 0,-0.164 -0.124,-0.231 -0.238,-0.231 -0.113,0 -0.238,0.067 -0.238,0.231 l 0,4.218 c 0,0.165 0.125,0.239 0.238,0.239 0.114,0 0.238,-0.074 0.238,-0.239 l 0,-0.226 c 0.18,0.277 0.626,0.465 1.016,0.465 l 0.086,0 c 0.809,0 1.484,-0.645 1.484,-1.481 l 0,-2.976 c 0,-0.164 -0.125,-0.231 -0.238,-0.231"
                 id="path114"
                 style="fill:#2b2b2a;fill-opacity:1;fill-rule:nonzero;stroke:none" /><path
                 d="m 199.66,2.324 c -0.117,0 -0.238,0.067 -0.238,0.231 l 0,4.218 c 0,0.165 0.121,0.239 0.238,0.239 0.113,0 0.238,-0.074 0.238,-0.239 l 0,-4.218 c 0,-0.164 -0.125,-0.231 -0.238,-0.231 m 0,5.887 c -0.117,0 -0.238,0.086 -0.238,0.238 l 0,0.313 c 0,0.16 0.121,0.238 0.238,0.238 0.113,0 0.238,-0.078 0.238,-0.238 l 0,-0.313 c 0,-0.152 -0.125,-0.238 -0.238,-0.238"
                 id="path116"
                 style="fill:#2b2b2a;fill-opacity:1;fill-rule:nonzero;stroke:none" /><path
                 d="m 204.781,6.699 -1.359,-4.183 c -0.067,-0.153 -0.192,-0.192 -0.293,-0.192 -0.106,0 -0.25,0.039 -0.297,0.192 l -1.359,4.183 c -0.008,0.02 -0.008,0.047 -0.008,0.086 0,0.141 0.121,0.227 0.246,0.227 0.105,0 0.18,-0.055 0.219,-0.16 l 1.199,-3.672 1.195,3.672 c 0.039,0.105 0.114,0.16 0.219,0.16 0.125,0 0.246,-0.086 0.246,-0.227 0,-0.039 0,-0.066 -0.008,-0.086"
                 id="path118"
                 style="fill:#2b2b2a;fill-opacity:1;fill-rule:nonzero;stroke:none" /><path
                 d="m 208.703,5.531 c 0,0.559 -0.473,1.016 -1.008,1.016 l -0.093,0 c -0.563,0 -1.028,-0.457 -1.028,-1.016 l 0,-0.629 2.129,0 0,0.629 z m 0.231,-1.105 -2.36,0 0,-0.625 c 0,-0.563 0.457,-1.02 1.02,-1.02 l 0.094,0 c 0.445,0 0.796,0.278 0.941,0.688 0.035,0.101 0.113,0.16 0.219,0.16 0.121,0 0.254,-0.086 0.254,-0.231 0,-0.015 -0.008,-0.046 -0.016,-0.082 -0.199,-0.601 -0.754,-0.992 -1.398,-0.992 l -0.094,0 c -0.809,0 -1.485,0.656 -1.485,1.477 l 0,1.73 c 0,0.805 0.676,1.481 1.473,1.481 l 0.094,0 c 0.828,0 1.496,-0.617 1.496,-1.481 l 0,-0.867 c 0,-0.125 -0.117,-0.238 -0.238,-0.238"
                 id="path120"
                 style="fill:#2b2b2a;fill-opacity:1;fill-rule:nonzero;stroke:none" /><path
                 d="m 212.73,6.184 c -0.074,0 -0.14,0.039 -0.187,0.105 -0.152,0.219 -0.344,0.258 -0.609,0.258 -0.391,0 -0.704,-0.172 -0.704,-0.629 l 0,-3.356 c 0,-0.16 -0.113,-0.238 -0.238,-0.238 -0.113,0 -0.238,0.078 -0.238,0.238 l 0,4.211 c 0,0.165 0.125,0.239 0.246,0.239 0.117,0 0.23,-0.074 0.23,-0.227 0.141,0.141 0.446,0.227 0.704,0.227 0.332,0 0.75,-0.106 0.988,-0.446 0.039,-0.046 0.055,-0.093 0.055,-0.144 0,-0.141 -0.122,-0.238 -0.247,-0.238"
                 id="path122"
                 style="fill:#2b2b2a;fill-opacity:1;fill-rule:nonzero;stroke:none" /><path
                 d="m 215.789,2.324 -0.172,0 c -0.586,0 -1.215,0.364 -1.5,0.934 -0.012,0.039 -0.027,0.074 -0.027,0.105 0,0.141 0.133,0.239 0.254,0.239 0.105,0 0.172,-0.051 0.211,-0.145 0.191,-0.41 0.656,-0.676 1.062,-0.676 l 0.172,0 c 0.649,0 1.074,0.418 1.074,0.887 0,1.539 -2.574,0.445 -2.574,2.203 l 0,0.047 c 0,0.637 0.625,1.094 1.445,1.094 l 0.02,0 c 0.797,0 1.34,-0.399 1.34,-0.617 0,-0.125 -0.106,-0.239 -0.231,-0.239 -0.054,0 -0.113,0.02 -0.16,0.067 -0.258,0.23 -0.531,0.324 -0.949,0.324 l -0.051,0 c -0.379,0 -0.949,-0.192 -0.949,-0.637 l 0,-0.039 c 0,-1.207 2.586,-0.273 2.586,-2.203 0,-0.953 -0.883,-1.344 -1.551,-1.344"
                 id="path124"
                 style="fill:#2b2b2a;fill-opacity:1;fill-rule:nonzero;stroke:none" /><path
                 d="m 219.18,2.324 c -0.114,0 -0.239,0.067 -0.239,0.231 l 0,4.218 c 0,0.165 0.125,0.239 0.239,0.239 0.113,0 0.238,-0.074 0.238,-0.239 l 0,-4.218 c 0,-0.164 -0.125,-0.231 -0.238,-0.231 m 0,5.887 c -0.114,0 -0.239,0.086 -0.239,0.238 l 0,0.313 c 0,0.16 0.125,0.238 0.239,0.238 0.113,0 0.238,-0.078 0.238,-0.238 l 0,-0.313 c 0,-0.152 -0.125,-0.238 -0.238,-0.238"
                 id="path126"
                 style="fill:#2b2b2a;fill-opacity:1;fill-rule:nonzero;stroke:none" /><path
                 d="m 222.742,2.324 c -0.722,0 -1.176,0.457 -1.176,1.18 l 0,3.016 -0.343,0 c -0.161,0 -0.239,0.113 -0.239,0.226 0,0.125 0.078,0.238 0.239,0.238 l 0.343,0 0,1.778 c 0,0.16 0.114,0.238 0.239,0.238 0.113,0 0.226,-0.078 0.226,-0.238 l 0,-1.778 0.657,0 c 0.16,0 0.246,-0.113 0.246,-0.238 0,-0.113 -0.086,-0.226 -0.246,-0.226 l -0.657,0 0,-3.016 c 0,-0.406 0.266,-0.723 0.711,-0.723 0.164,0 0.238,-0.113 0.238,-0.226 0,-0.125 -0.074,-0.231 -0.238,-0.231"
                 id="path128"
                 style="fill:#2b2b2a;fill-opacity:1;fill-rule:nonzero;stroke:none" /><path
                 d="m 226.707,7.629 c -0.113,0 -0.238,0.086 -0.238,0.238 l 0,0.317 c 0,0.16 0.125,0.234 0.238,0.234 0.121,0 0.238,-0.074 0.238,-0.234 l 0,-0.317 c 0,-0.152 -0.117,-0.238 -0.238,-0.238 m -1.73,0 c -0.125,0 -0.239,0.086 -0.239,0.238 l 0,0.317 c 0,0.16 0.114,0.234 0.239,0.234 0.113,0 0.238,-0.074 0.238,-0.234 l 0,-0.317 c 0,-0.152 -0.125,-0.238 -0.238,-0.238 m 1.804,-2.82 C 226.23,4.551 224.66,4.656 224.66,3.734 l 0,-0.05 c 0,-0.571 0.422,-0.903 1.02,-0.903 l 0.093,0 c 0.563,0 1.008,0.457 1.008,1.02 l 0,1.008 z m 0.836,-2.485 -0.047,0 C 227.191,2.391 227,2.562 226.895,2.82 226.621,2.508 226.223,2.324 225.773,2.324 l -0.093,0 c -0.797,0 -1.485,0.477 -1.485,1.371 l 0,0.047 c 0,1.274 1.504,1.188 2.313,1.465 0.254,0.086 0.273,0.141 0.273,0.359 0,0.551 -0.426,0.973 -0.961,0.973 l -0.066,0 c -0.379,0 -0.75,-0.144 -0.942,-0.57 -0.046,-0.098 -0.113,-0.145 -0.207,-0.145 -0.125,0 -0.257,0.094 -0.257,0.238 0,0.028 0.011,0.067 0.031,0.106 0.273,0.644 0.871,0.844 1.375,0.844 l 0.066,0 c 0.754,0 1.426,-0.617 1.426,-1.407 l 0,-1.91 c 0,-0.73 0.098,-0.855 0.402,-0.902 0.133,-0.02 0.2,-0.098 0.2,-0.231 0,-0.14 -0.086,-0.238 -0.231,-0.238"
                 id="path130"
                 style="fill:#2b2b2a;fill-opacity:1;fill-rule:nonzero;stroke:none" /><path
                 d="m 230.523,2.324 c -0.722,0 -1.179,0.457 -1.179,1.18 l 0,3.016 -0.34,0 c -0.164,0 -0.238,0.113 -0.238,0.226 0,0.125 0.074,0.238 0.238,0.238 l 0.34,0 0,1.778 c 0,0.16 0.117,0.238 0.238,0.238 0.117,0 0.23,-0.078 0.23,-0.238 l 0,-1.778 0.657,0 c 0.16,0 0.246,-0.113 0.246,-0.238 0,-0.113 -0.086,-0.226 -0.246,-0.226 l -0.657,0 0,-3.016 c 0,-0.406 0.266,-0.723 0.711,-0.723 0.165,0 0.239,-0.113 0.239,-0.226 0,-0.125 -0.074,-0.231 -0.239,-0.231"
                 id="path132"
                 style="fill:#2b2b2a;fill-opacity:1;fill-rule:nonzero;stroke:none" /><path
                 d="m 239.004,4.207 c 0,0.715 -0.578,1.332 -1.274,1.332 l -1.292,0 0,-2.699 1.292,0 c 0.711,0 1.274,0.558 1.274,1.273 l 0,0.094 z m -0.086,3.109 c 0,0.723 -0.492,1.219 -1.188,1.219 l -1.292,0 0,-2.519 1.292,0 c 0.684,0 1.188,0.539 1.188,1.261 l 0,0.039 z m -1.188,-4.941 -1.531,0 c -0.125,0 -0.226,0.113 -0.226,0.234 l 0,6.153 c 0,0.125 0.101,0.238 0.226,0.238 l 1.531,0 c 0.961,0 1.653,-0.723 1.653,-1.684 l 0,-0.039 c 0,-0.644 -0.305,-1.207 -0.797,-1.511 0.531,-0.313 0.883,-0.911 0.883,-1.559 l 0,-0.094 c 0,-0.961 -0.778,-1.738 -1.739,-1.738"
                 id="path134"
                 style="fill:#2b2b2a;fill-opacity:1;fill-rule:nonzero;stroke:none" /><path
                 d="m 243.688,5.531 c 0,0.559 -0.477,1.016 -1.008,1.016 l -0.098,0 c -0.559,0 -1.023,-0.457 -1.023,-1.016 l 0,-0.629 2.129,0 0,0.629 z m 0.226,-1.105 -2.355,0 0,-0.625 c 0,-0.563 0.453,-1.02 1.015,-1.02 l 0.094,0 c 0.449,0 0.801,0.278 0.941,0.688 0.039,0.101 0.118,0.16 0.219,0.16 0.125,0 0.258,-0.086 0.258,-0.231 0,-0.015 -0.008,-0.046 -0.02,-0.082 -0.199,-0.601 -0.75,-0.992 -1.398,-0.992 l -0.094,0 c -0.808,0 -1.484,0.656 -1.484,1.477 l 0,1.73 c 0,0.805 0.676,1.481 1.476,1.481 l 0.094,0 c 0.828,0 1.492,-0.617 1.492,-1.481 l 0,-0.867 c 0,-0.125 -0.113,-0.238 -0.238,-0.238"
                 id="path136"
                 style="fill:#2b2b2a;fill-opacity:1;fill-rule:nonzero;stroke:none" /><path
                 d="m 247.715,6.184 c -0.078,0 -0.145,0.039 -0.192,0.105 -0.152,0.219 -0.339,0.258 -0.609,0.258 -0.387,0 -0.703,-0.172 -0.703,-0.629 l 0,-3.356 c 0,-0.16 -0.113,-0.238 -0.238,-0.238 -0.114,0 -0.235,0.078 -0.235,0.238 l 0,4.211 c 0,0.165 0.121,0.239 0.246,0.239 0.114,0 0.227,-0.074 0.227,-0.227 0.144,0.141 0.449,0.227 0.703,0.227 0.336,0 0.754,-0.106 0.988,-0.446 0.039,-0.046 0.059,-0.093 0.059,-0.144 0,-0.141 -0.125,-0.238 -0.246,-0.238"
                 id="path138"
                 style="fill:#2b2b2a;fill-opacity:1;fill-rule:nonzero;stroke:none" /><path
                 d="m 252.18,2.324 c -0.114,0 -0.239,0.067 -0.239,0.231 l 0,2.984 c 0,0.57 -0.437,1.008 -1.007,1.008 l -0.086,0 c -0.571,0 -1.016,-0.465 -1.016,-1.035 l 0,-2.957 c 0,-0.164 -0.125,-0.231 -0.238,-0.231 -0.114,0 -0.239,0.067 -0.239,0.231 l 0,4.218 c 0,0.165 0.125,0.239 0.239,0.239 0.113,0 0.238,-0.074 0.238,-0.239 l 0,-0.226 c 0.18,0.277 0.629,0.465 1.016,0.465 l 0.086,0 c 0.808,0 1.484,-0.645 1.484,-1.481 l 0,-2.976 c 0,-0.164 -0.125,-0.231 -0.238,-0.231"
                 id="path140"
                 style="fill:#2b2b2a;fill-opacity:1;fill-rule:nonzero;stroke:none" /><path
                 d="m 258.109,4.52 c -0.527,0 -0.961,0.433 -0.961,0.968 0,0.528 0.434,0.965 0.961,0.965 0.547,0 0.961,-0.437 0.961,-0.965 0,-0.535 -0.414,-0.968 -0.961,-0.968"
                 id="path142"
                 style="fill:#2b2b2a;fill-opacity:1;fill-rule:nonzero;stroke:none" /><path
                 d="m 265.586,2.324 -0.098,0 c -0.961,0 -1.738,0.762 -1.738,1.731 l 0,3.203 c 0,0.972 0.777,1.742 1.738,1.742 l 0.098,0 c 0.93,0 1.738,-0.695 1.738,-1.605 l 0,-0.02 c 0,-0.145 -0.094,-0.238 -0.238,-0.238 -0.141,0 -0.227,0.086 -0.238,0.226 -0.047,0.657 -0.578,1.172 -1.262,1.172 l -0.098,0 c -0.711,0 -1.273,-0.562 -1.273,-1.277 l 0,-3.203 c 0,-0.711 0.562,-1.274 1.273,-1.274 l 0.098,0 c 0.711,0 1.273,0.563 1.273,1.274 l 0,1.304 -1.16,0 c -0.152,0 -0.238,0.114 -0.238,0.227 0,0.125 0.086,0.238 0.238,0.238 l 1.387,0 c 0.144,0 0.238,-0.105 0.238,-0.226 l 0,-1.543 c 0,-0.969 -0.781,-1.731 -1.738,-1.731"
                 id="path144"
                 style="fill:#2b2b2a;fill-opacity:1;fill-rule:nonzero;stroke:none" /><path
                 d="m 271.645,5.531 c 0,0.559 -0.477,1.016 -1.008,1.016 l -0.094,0 c -0.563,0 -1.027,-0.457 -1.027,-1.016 l 0,-0.629 2.129,0 0,0.629 z m 0.226,-1.105 -2.355,0 0,-0.625 c 0,-0.563 0.457,-1.02 1.015,-1.02 l 0.098,0 c 0.445,0 0.797,0.278 0.941,0.688 0.035,0.101 0.114,0.16 0.219,0.16 0.121,0 0.254,-0.086 0.254,-0.231 0,-0.015 -0.008,-0.046 -0.02,-0.082 -0.199,-0.601 -0.75,-0.992 -1.394,-0.992 l -0.098,0 c -0.808,0 -1.48,0.656 -1.48,1.477 l 0,1.73 c 0,0.805 0.672,1.481 1.472,1.481 l 0.094,0 c 0.828,0 1.492,-0.617 1.492,-1.481 l 0,-0.867 c 0,-0.125 -0.113,-0.238 -0.238,-0.238"
                 id="path146"
                 style="fill:#2b2b2a;fill-opacity:1;fill-rule:nonzero;stroke:none" /><path
                 d="m 275.199,2.324 -0.172,0 c -0.589,0 -1.218,0.364 -1.504,0.934 -0.007,0.039 -0.027,0.074 -0.027,0.105 0,0.141 0.133,0.239 0.258,0.239 0.101,0 0.168,-0.051 0.207,-0.145 0.191,-0.41 0.656,-0.676 1.066,-0.676 l 0.172,0 c 0.645,0 1.074,0.418 1.074,0.887 0,1.539 -2.578,0.445 -2.578,2.203 l 0,0.047 c 0,0.637 0.629,1.094 1.446,1.094 l 0.019,0 c 0.797,0 1.34,-0.399 1.34,-0.617 0,-0.125 -0.105,-0.239 -0.227,-0.239 -0.058,0 -0.117,0.02 -0.164,0.067 -0.257,0.23 -0.531,0.324 -0.949,0.324 l -0.047,0 c -0.383,0 -0.953,-0.192 -0.953,-0.637 l 0,-0.039 c 0,-1.207 2.586,-0.273 2.586,-2.203 0,-0.953 -0.883,-1.344 -1.547,-1.344"
                 id="path148"
                 style="fill:#2b2b2a;fill-opacity:1;fill-rule:nonzero;stroke:none" /><path
                 d="m 280.824,5.531 c 0,0.559 -0.476,1.016 -1.008,1.016 l -0.097,0 c -0.559,0 -1.028,-0.457 -1.028,-1.016 l 0,-0.629 2.133,0 0,0.629 z m 0.227,-1.105 -2.36,0 0,-0.625 c 0,-0.563 0.457,-1.02 1.02,-1.02 l 0.094,0 c 0.449,0 0.8,0.278 0.941,0.688 0.039,0.101 0.113,0.16 0.219,0.16 0.125,0 0.258,-0.086 0.258,-0.231 0,-0.015 -0.012,-0.046 -0.02,-0.082 -0.199,-0.601 -0.75,-0.992 -1.398,-0.992 l -0.094,0 c -0.809,0 -1.484,0.656 -1.484,1.477 l 0,1.73 c 0,0.805 0.675,1.481 1.472,1.481 l 0.098,0 c 0.824,0 1.492,-0.617 1.492,-1.481 l 0,-0.867 c 0,-0.125 -0.113,-0.238 -0.238,-0.238"
                 id="path150"
                 style="fill:#2b2b2a;fill-opacity:1;fill-rule:nonzero;stroke:none" /><path
                 d="m 284.117,2.324 c -0.769,0 -1.179,0.524 -1.179,1.18 l 0,5.258 c 0,0.16 0.124,0.238 0.238,0.238 0.113,0 0.238,-0.078 0.238,-0.238 l 0,-5.258 c 0,-0.406 0.277,-0.723 0.703,-0.723 0.16,0 0.246,-0.113 0.246,-0.226 0,-0.125 -0.086,-0.231 -0.246,-0.231"
                 id="path152"
                 style="fill:#2b2b2a;fill-opacity:1;fill-rule:nonzero;stroke:none" /><path
                 d="m 287.023,2.324 c -0.769,0 -1.175,0.524 -1.175,1.18 l 0,5.258 c 0,0.16 0.121,0.238 0.234,0.238 0.117,0 0.238,-0.078 0.238,-0.238 l 0,-5.258 c 0,-0.406 0.278,-0.723 0.703,-0.723 0.165,0 0.25,-0.113 0.25,-0.226 0,-0.125 -0.085,-0.231 -0.25,-0.231"
                 id="path154"
                 style="fill:#2b2b2a;fill-opacity:1;fill-rule:nonzero;stroke:none" /><path
                 d="m 290.141,2.324 -0.172,0 c -0.59,0 -1.215,0.364 -1.5,0.934 -0.012,0.039 -0.031,0.074 -0.031,0.105 0,0.141 0.132,0.239 0.257,0.239 0.106,0 0.172,-0.051 0.211,-0.145 0.188,-0.41 0.656,-0.676 1.063,-0.676 l 0.172,0 c 0.648,0 1.074,0.418 1.074,0.887 0,1.539 -2.574,0.445 -2.574,2.203 l 0,0.047 c 0,0.637 0.625,1.094 1.441,1.094 l 0.02,0 c 0.8,0 1.339,-0.399 1.339,-0.617 0,-0.125 -0.101,-0.239 -0.226,-0.239 -0.059,0 -0.113,0.02 -0.16,0.067 -0.258,0.23 -0.535,0.324 -0.953,0.324 l -0.047,0 c -0.379,0 -0.95,-0.192 -0.95,-0.637 l 0,-0.039 c 0,-1.207 2.586,-0.273 2.586,-2.203 0,-0.953 -0.886,-1.344 -1.55,-1.344"
                 id="path156"
                 style="fill:#2b2b2a;fill-opacity:1;fill-rule:nonzero;stroke:none" /><path
                 d="m 294.758,2.324 -0.098,0 c -0.805,0 -1.48,0.656 -1.48,1.477 l 0,1.73 c 0,0.836 0.675,1.481 1.48,1.481 l 0.098,0 c 0.808,0 1.48,-0.645 1.48,-1.481 0,-0.164 -0.113,-0.238 -0.226,-0.238 -0.114,0 -0.239,0.074 -0.239,0.238 0,0.559 -0.457,1.016 -1.015,1.016 l -0.098,0 c -0.558,0 -1.015,-0.457 -1.015,-1.016 l 0,-1.73 c 0,-0.563 0.457,-1.02 1.015,-1.02 l 0.098,0 c 0.558,0 1.015,0.457 1.015,1.02 0,0.16 0.125,0.246 0.239,0.246 0.113,0 0.226,-0.086 0.226,-0.246 0,-0.821 -0.672,-1.477 -1.48,-1.477"
                 id="path158"
                 style="fill:#2b2b2a;fill-opacity:1;fill-rule:nonzero;stroke:none" /><path
                 d="m 300.715,2.324 c -0.113,0 -0.238,0.067 -0.238,0.231 l 0,2.984 c 0,0.57 -0.438,1.008 -1.008,1.008 l -0.086,0 c -0.571,0 -1.016,-0.465 -1.016,-1.035 l 0,-2.957 c 0,-0.164 -0.125,-0.231 -0.238,-0.231 -0.113,0 -0.238,0.067 -0.238,0.231 l 0,6.207 c 0,0.16 0.125,0.238 0.238,0.238 0.113,0 0.238,-0.078 0.238,-0.238 l 0,-2.215 c 0.18,0.277 0.625,0.465 1.016,0.465 l 0.086,0 c 0.808,0 1.484,-0.645 1.484,-1.481 l 0,-2.976 c 0,-0.164 -0.125,-0.231 -0.238,-0.231"
                 id="path160"
                 style="fill:#2b2b2a;fill-opacity:1;fill-rule:nonzero;stroke:none" /><path
                 d="m 305.027,4.809 c -0.55,-0.258 -2.121,-0.153 -2.121,-1.075 l 0,-0.05 c 0,-0.571 0.418,-0.903 1.02,-0.903 l 0.094,0 c 0.562,0 1.007,0.457 1.007,1.02 l 0,1.008 z m 0.836,-2.485 -0.047,0 c -0.378,0.067 -0.57,0.238 -0.675,0.496 -0.274,-0.312 -0.676,-0.496 -1.121,-0.496 l -0.094,0 c -0.801,0 -1.485,0.477 -1.485,1.371 l 0,0.047 c 0,1.274 1.504,1.188 2.309,1.465 0.258,0.086 0.277,0.141 0.277,0.359 0,0.551 -0.429,0.969 -0.961,0.969 l -0.066,0 c -0.379,0 -0.75,-0.14 -0.941,-0.566 -0.047,-0.098 -0.114,-0.145 -0.207,-0.145 -0.125,0 -0.258,0.094 -0.258,0.238 0,0.028 0.008,0.067 0.027,0.106 0.277,0.644 0.875,0.844 1.379,0.844 l 0.066,0 c 0.75,0 1.426,-0.617 1.426,-1.407 l 0,-1.91 c 0,-0.73 0.098,-0.855 0.399,-0.902 0.132,-0.02 0.203,-0.098 0.203,-0.231 0,-0.14 -0.086,-0.238 -0.231,-0.238"
                 id="path162"
                 style="fill:#2b2b2a;fill-opacity:1;fill-rule:nonzero;stroke:none" /><path
                 d="m 308.875,8.535 c -0.41,0 -0.695,-0.269 -0.695,-0.723 l 0,-0.828 0.636,0 c 0.164,0 0.25,-0.113 0.25,-0.226 0,-0.117 -0.086,-0.238 -0.25,-0.238 l -0.636,0 0,-3.965 c 0,-0.164 -0.114,-0.231 -0.227,-0.231 -0.113,0 -0.238,0.067 -0.238,0.231 l 0,3.965 -0.36,0 c -0.164,0 -0.238,0.121 -0.238,0.238 0,0.113 0.074,0.226 0.238,0.226 l 0.36,0 0,0.828 c 0,0.79 0.484,1.188 1.16,1.188 0.16,0 0.246,-0.113 0.246,-0.23 0,-0.114 -0.086,-0.235 -0.246,-0.235"
                 id="path164"
                 style="fill:#2b2b2a;fill-opacity:1;fill-rule:nonzero;stroke:none" /><path
                 d="m 312.066,2.324 c -0.722,0 -1.179,0.457 -1.179,1.18 l 0,3.016 -0.34,0 c -0.164,0 -0.238,0.113 -0.238,0.226 0,0.125 0.074,0.238 0.238,0.238 l 0.34,0 0,1.778 c 0,0.16 0.113,0.238 0.238,0.238 0.113,0 0.227,-0.078 0.227,-0.238 l 0,-1.778 0.656,0 c 0.164,0 0.25,-0.113 0.25,-0.238 0,-0.113 -0.086,-0.226 -0.25,-0.226 l -0.656,0 0,-3.016 c 0,-0.406 0.269,-0.723 0.714,-0.723 0.161,0 0.239,-0.113 0.239,-0.226 0,-0.125 -0.078,-0.231 -0.239,-0.231"
                 id="path166"
                 style="fill:#2b2b2a;fill-opacity:1;fill-rule:nonzero;stroke:none" /><path
                 d="m 315.164,2.324 -0.172,0 c -0.59,0 -1.219,0.364 -1.504,0.934 -0.008,0.039 -0.027,0.074 -0.027,0.105 0,0.141 0.133,0.239 0.258,0.239 0.105,0 0.172,-0.051 0.207,-0.145 0.191,-0.41 0.656,-0.676 1.066,-0.676 l 0.172,0 c 0.645,0 1.074,0.418 1.074,0.887 0,1.539 -2.578,0.445 -2.578,2.203 l 0,0.047 c 0,0.637 0.629,1.094 1.445,1.094 l 0.02,0 c 0.797,0 1.34,-0.399 1.34,-0.617 0,-0.125 -0.106,-0.239 -0.227,-0.239 -0.058,0 -0.113,0.02 -0.164,0.067 -0.254,0.23 -0.531,0.324 -0.949,0.324 l -0.047,0 c -0.379,0 -0.949,-0.192 -0.949,-0.637 l 0,-0.039 c 0,-1.207 2.582,-0.273 2.582,-2.203 0,-0.953 -0.883,-1.344 -1.547,-1.344"
                 id="path168"
                 style="fill:#2b2b2a;fill-opacity:1;fill-rule:nonzero;stroke:none" /><path
                 d="m 319.781,2.324 -0.172,0 c -0.589,0 -1.218,0.364 -1.504,0.934 -0.007,0.039 -0.027,0.074 -0.027,0.105 0,0.141 0.133,0.239 0.258,0.239 0.105,0 0.172,-0.051 0.207,-0.145 0.191,-0.41 0.656,-0.676 1.066,-0.676 l 0.172,0 c 0.645,0 1.074,0.418 1.074,0.887 0,1.539 -2.578,0.445 -2.578,2.203 l 0,0.047 c 0,0.637 0.629,1.094 1.446,1.094 l 0.019,0 c 0.797,0 1.34,-0.399 1.34,-0.617 0,-0.125 -0.105,-0.239 -0.227,-0.239 -0.058,0 -0.113,0.02 -0.164,0.067 -0.253,0.23 -0.531,0.324 -0.949,0.324 l -0.047,0 c -0.379,0 -0.949,-0.192 -0.949,-0.637 l 0,-0.039 c 0,-1.207 2.582,-0.273 2.582,-2.203 0,-0.953 -0.883,-1.344 -1.547,-1.344"
                 id="path170"
                 style="fill:#2b2b2a;fill-opacity:1;fill-rule:nonzero;stroke:none" /><path
                 d="m 324.301,2.324 c -0.723,0 -1.18,0.457 -1.18,1.18 l 0,3.016 -0.34,0 c -0.164,0 -0.238,0.113 -0.238,0.226 0,0.125 0.074,0.238 0.238,0.238 l 0.34,0 0,1.778 c 0,0.16 0.117,0.238 0.238,0.238 0.114,0 0.231,-0.078 0.231,-0.238 l 0,-1.778 0.656,0 c 0.16,0 0.246,-0.113 0.246,-0.238 0,-0.113 -0.086,-0.226 -0.246,-0.226 l -0.656,0 0,-3.016 c 0,-0.406 0.265,-0.723 0.711,-0.723 0.164,0 0.238,-0.113 0.238,-0.226 0,-0.125 -0.074,-0.231 -0.238,-0.231"
                 id="path172"
                 style="fill:#2b2b2a;fill-opacity:1;fill-rule:nonzero;stroke:none" /><path
                 d="m 328.027,6.184 c -0.078,0 -0.144,0.039 -0.191,0.105 -0.152,0.219 -0.34,0.258 -0.609,0.258 -0.387,0 -0.704,-0.172 -0.704,-0.629 l 0,-3.356 c 0,-0.16 -0.113,-0.238 -0.238,-0.238 -0.113,0 -0.234,0.078 -0.234,0.238 l 0,4.211 c 0,0.165 0.121,0.239 0.246,0.239 0.113,0 0.226,-0.074 0.226,-0.227 0.145,0.141 0.45,0.227 0.704,0.227 0.335,0 0.753,-0.106 0.988,-0.446 0.039,-0.046 0.058,-0.093 0.058,-0.144 0,-0.141 -0.125,-0.238 -0.246,-0.238"
                 id="path174"
                 style="fill:#2b2b2a;fill-opacity:1;fill-rule:nonzero;stroke:none" /><path
                 d="m 332.027,4.809 c -0.55,-0.258 -2.121,-0.153 -2.121,-1.075 l 0,-0.05 c 0,-0.571 0.418,-0.903 1.016,-0.903 l 0.098,0 c 0.558,0 1.007,0.457 1.007,1.02 l 0,1.008 z m 0.836,-2.485 -0.047,0 c -0.382,0.067 -0.57,0.238 -0.675,0.496 -0.278,-0.312 -0.676,-0.496 -1.121,-0.496 l -0.098,0 c -0.797,0 -1.481,0.477 -1.481,1.371 l 0,0.047 c 0,1.274 1.5,1.188 2.309,1.465 0.258,0.086 0.277,0.141 0.277,0.359 0,0.551 -0.429,0.969 -0.961,0.969 l -0.066,0 c -0.379,0 -0.75,-0.14 -0.941,-0.566 -0.047,-0.098 -0.114,-0.145 -0.211,-0.145 -0.121,0 -0.254,0.094 -0.254,0.238 0,0.028 0.008,0.067 0.027,0.106 0.277,0.644 0.875,0.844 1.379,0.844 l 0.066,0 c 0.75,0 1.426,-0.617 1.426,-1.407 l 0,-1.91 c 0,-0.73 0.094,-0.855 0.399,-0.902 0.132,-0.02 0.199,-0.098 0.199,-0.231 0,-0.14 -0.086,-0.238 -0.227,-0.238"
                 id="path176"
                 style="fill:#2b2b2a;fill-opacity:1;fill-rule:nonzero;stroke:none" /><path
                 d="m 335.949,2.324 -0.172,0 c -0.589,0 -1.218,0.364 -1.504,0.934 -0.007,0.039 -0.027,0.074 -0.027,0.105 0,0.141 0.133,0.239 0.258,0.239 0.105,0 0.172,-0.051 0.207,-0.145 0.191,-0.41 0.656,-0.676 1.066,-0.676 l 0.172,0 c 0.645,0 1.074,0.418 1.074,0.887 0,1.539 -2.578,0.445 -2.578,2.203 l 0,0.047 c 0,0.637 0.629,1.094 1.446,1.094 l 0.019,0 c 0.797,0 1.34,-0.399 1.34,-0.617 0,-0.125 -0.105,-0.239 -0.227,-0.239 -0.058,0 -0.113,0.02 -0.164,0.067 -0.254,0.23 -0.531,0.324 -0.949,0.324 l -0.047,0 c -0.379,0 -0.949,-0.192 -0.949,-0.637 l 0,-0.039 c 0,-1.207 2.582,-0.273 2.582,-2.203 0,-0.953 -0.883,-1.344 -1.547,-1.344"
                 id="path178"
                 style="fill:#2b2b2a;fill-opacity:1;fill-rule:nonzero;stroke:none" /><path
                 d="m 340.566,2.324 -0.171,0 c -0.59,0 -1.219,0.364 -1.504,0.934 -0.008,0.039 -0.028,0.074 -0.028,0.105 0,0.141 0.133,0.239 0.258,0.239 0.106,0 0.172,-0.051 0.207,-0.145 0.192,-0.41 0.656,-0.676 1.067,-0.676 l 0.171,0 c 0.645,0 1.075,0.418 1.075,0.887 0,1.539 -2.579,0.445 -2.579,2.203 l 0,0.047 c 0,0.637 0.629,1.094 1.446,1.094 l 0.019,0 c 0.797,0 1.34,-0.399 1.34,-0.617 0,-0.125 -0.105,-0.239 -0.226,-0.239 -0.059,0 -0.114,0.02 -0.164,0.067 -0.254,0.23 -0.532,0.324 -0.95,0.324 l -0.047,0 c -0.378,0 -0.949,-0.192 -0.949,-0.637 l 0,-0.039 c 0,-1.207 2.582,-0.273 2.582,-2.203 0,-0.953 -0.883,-1.344 -1.547,-1.344"
                 id="path180"
                 style="fill:#2b2b2a;fill-opacity:1;fill-rule:nonzero;stroke:none" /><path
                 d="m 346.191,5.531 c 0,0.559 -0.476,1.016 -1.007,1.016 l -0.098,0 c -0.559,0 -1.024,-0.457 -1.024,-1.016 l 0,-0.629 2.129,0 0,0.629 z m 0.227,-1.105 -2.356,0 0,-0.625 c 0,-0.563 0.454,-1.02 1.016,-1.02 l 0.094,0 c 0.449,0 0.801,0.278 0.941,0.688 0.039,0.101 0.117,0.16 0.219,0.16 0.125,0 0.258,-0.086 0.258,-0.231 0,-0.015 -0.008,-0.046 -0.02,-0.082 -0.199,-0.601 -0.75,-0.992 -1.398,-0.992 l -0.094,0 c -0.808,0 -1.484,0.656 -1.484,1.477 l 0,1.73 c 0,0.805 0.676,1.481 1.476,1.481 l 0.094,0 c 0.828,0 1.492,-0.617 1.492,-1.481 l 0,-0.867 c 0,-0.125 -0.113,-0.238 -0.238,-0.238"
                 id="path182"
                 style="fill:#2b2b2a;fill-opacity:1;fill-rule:nonzero;stroke:none" /><path
                 d="m 354.605,2.375 -2.554,0 c -0.25,0 -0.324,0.164 -0.324,0.313 0,0.054 0.011,0.113 0.039,0.156 l 2.367,3.84 c 0.156,0.257 0.176,0.441 0.176,0.656 l 0,0.074 c 0,0.535 -0.446,0.953 -0.989,0.953 l -0.093,0 c -0.528,0 -0.961,-0.426 -0.961,-0.953 l 0,-0.102 c 0,-0.16 -0.114,-0.23 -0.223,-0.23 -0.121,0 -0.231,0.07 -0.231,0.23 l 0,0.102 c 0,0.777 0.637,1.406 1.415,1.406 l 0.093,0 c 0.774,0 1.45,-0.601 1.45,-1.406 l 0,-0.074 c 0,-0.289 -0.028,-0.547 -0.239,-0.887 l -2.265,-3.625 2.339,0 c 0.157,0 0.231,-0.113 0.231,-0.223 0,-0.121 -0.074,-0.23 -0.231,-0.23"
                 id="path184"
                 style="fill:#2b2b2a;fill-opacity:1;fill-rule:nonzero;stroke:none" /><path
                 d="m 358.102,2.328 -0.102,0 c -0.844,0 -1.414,0.516 -1.414,1.543 0,0.176 0.117,0.242 0.23,0.242 0.11,0 0.223,-0.066 0.223,-0.242 0,-0.766 0.414,-1.101 0.961,-1.101 l 0.102,0 c 0.554,0 1.007,0.472 1.007,1.027 l 0,1.34 c 0,0.554 -0.453,1.027 -1.007,1.027 l -0.102,0 c -0.359,0 -0.684,-0.148 -0.859,-0.414 -0.067,-0.102 -0.161,-0.141 -0.262,-0.141 -0.117,0 -0.238,0.075 -0.238,0.231 l 0,2.683 c 0,0.137 0.109,0.239 0.23,0.239 l 2.258,0 c 0.176,0 0.238,-0.11 0.238,-0.219 0,-0.113 -0.062,-0.234 -0.238,-0.234 l -2.035,0 0,-2.004 c 0.195,0.183 0.574,0.312 0.906,0.312 l 0.102,0 c 0.824,0 1.46,-0.664 1.46,-1.48 l 0,-1.34 c 0,-0.824 -0.636,-1.469 -1.46,-1.469"
                 id="path186"
                 style="fill:#2b2b2a;fill-opacity:1;fill-rule:nonzero;stroke:none" /><path
                 d="m 365.344,4.52 c -0.528,0 -0.961,0.433 -0.961,0.968 0,0.528 0.433,0.965 0.961,0.965 0.547,0 0.961,-0.437 0.961,-0.965 0,-0.535 -0.414,-0.968 -0.961,-0.968"
                 id="path188"
                 style="fill:#2b2b2a;fill-opacity:1;fill-rule:nonzero;stroke:none" /><path
                 d="m 372.938,2.324 -0.094,0 c -0.961,0 -1.75,0.762 -1.75,1.731 l 0,3.203 c 0,0.972 0.789,1.742 1.75,1.742 l 0.094,0 c 0.886,0 1.617,-0.648 1.722,-1.492 l 0,-0.031 c 0,-0.141 -0.105,-0.235 -0.23,-0.235 -0.114,0 -0.207,0.086 -0.239,0.199 -0.074,0.606 -0.605,1.094 -1.253,1.094 l -0.094,0 c -0.715,0 -1.285,-0.562 -1.285,-1.277 l 0,-3.203 c 0,-0.711 0.57,-1.274 1.285,-1.274 l 0.094,0 c 0.648,0 1.179,0.485 1.253,1.094 0.032,0.113 0.125,0.199 0.239,0.199 0.125,0 0.23,-0.094 0.23,-0.238 l 0,-0.027 c -0.105,-0.856 -0.836,-1.485 -1.722,-1.485"
                 id="path190"
                 style="fill:#2b2b2a;fill-opacity:1;fill-rule:nonzero;stroke:none" /><path
                 d="m 379.723,2.324 c -0.114,0 -0.231,0.067 -0.231,0.231 l 0,2.984 -2.64,0 0,-2.984 c 0,-0.164 -0.114,-0.231 -0.231,-0.231 -0.121,0 -0.234,0.067 -0.234,0.231 l 0,6.207 c 0,0.16 0.113,0.238 0.234,0.238 0.117,0 0.231,-0.078 0.231,-0.238 l 0,-2.746 2.64,0 0,2.746 c 0,0.16 0.117,0.238 0.231,0.238 0.121,0 0.238,-0.078 0.238,-0.238 l 0,-6.207 c 0,-0.164 -0.117,-0.231 -0.238,-0.231"
                 id="path192"
                 style="fill:#2b2b2a;fill-opacity:1;fill-rule:nonzero;stroke:none" /><path
                 d="m 384.531,4.551 -2.484,0 c -0.235,0 -0.359,0.179 -0.359,0.359 0,0.184 0.124,0.363 0.359,0.363 l 2.473,0 c 0.257,0 0.371,-0.179 0.371,-0.363 0,-0.18 -0.106,-0.359 -0.36,-0.359"
                 id="path194"
                 style="fill:#2b2b2a;fill-opacity:1;fill-rule:nonzero;stroke:none" /><path
                 d="m 387.781,2.328 -0.183,0 c -0.778,0 -1.414,0.617 -1.414,1.414 0,0.149 0.109,0.231 0.23,0.231 0.109,0 0.223,-0.082 0.223,-0.231 0,-0.535 0.433,-0.972 0.961,-0.972 l 0.183,0 c 0.528,0 0.961,0.437 0.961,0.972 l 0,0.696 c 0,1.007 -0.406,1.144 -1.246,1.144 -0.156,0 -0.242,0.121 -0.242,0.23 0,0.114 0.086,0.231 0.242,0.231 0.602,0 1.246,0.027 1.246,1.137 l 0,0.242 c 0,0.621 -0.488,0.945 -0.98,0.945 -0.508,0 -1.035,-0.297 -1.035,-0.937 0,-0.157 -0.11,-0.231 -0.219,-0.231 -0.121,0 -0.235,0.074 -0.235,0.231 0,0.953 0.75,1.39 1.5,1.39 0.719,0 1.422,-0.472 1.422,-1.398 l 0,-0.242 c 0,-0.746 -0.265,-1.145 -0.609,-1.356 0.379,-0.234 0.609,-0.64 0.609,-1.386 l 0,-0.696 c 0,-0.797 -0.636,-1.414 -1.414,-1.414"
                 id="path196"
                 style="fill:#2b2b2a;fill-opacity:1;fill-rule:nonzero;stroke:none" /><path
                 d="m 393.562,7.414 c 0,0.527 -0.433,0.953 -0.96,0.953 l -0.11,0 c -0.527,0 -0.965,-0.426 -0.965,-0.953 l 0,-3.672 c 0,-0.535 0.438,-0.972 0.965,-0.972 l 0.11,0 c 0.527,0 0.96,0.437 0.96,0.972 l 0,3.672 z m -0.96,-5.086 -0.11,0 c -0.777,0 -1.418,0.617 -1.418,1.414 l 0,3.672 c 0,0.777 0.641,1.406 1.418,1.406 l 0.11,0 c 0.777,0 1.414,-0.629 1.414,-1.406 l 0,-3.672 c 0,-0.797 -0.637,-1.414 -1.414,-1.414"
                 id="path198"
                 style="fill:#2b2b2a;fill-opacity:1;fill-rule:nonzero;stroke:none" /><path
                 d="m 397.207,2.328 c -0.121,0 -0.23,0.063 -0.23,0.223 l 0,5.703 -0.723,-1.016 c -0.047,-0.066 -0.109,-0.101 -0.184,-0.101 -0.121,0 -0.23,0.101 -0.23,0.222 0,0.043 0.008,0.09 0.035,0.137 l 0.887,1.184 c 0.066,0.082 0.133,0.14 0.269,0.14 l 0.176,0 c 0.121,0 0.223,-0.113 0.223,-0.234 l 0,-6.035 c 0,-0.16 -0.114,-0.223 -0.223,-0.223"
                 id="path200"
                 style="fill:#2b2b2a;fill-opacity:1;fill-rule:nonzero;stroke:none" /><path
                 d="m 402.461,2.375 -2.551,0 c -0.25,0 -0.324,0.164 -0.324,0.313 0,0.054 0.008,0.113 0.035,0.156 l 2.367,3.84 c 0.16,0.257 0.176,0.441 0.176,0.656 l 0,0.074 c 0,0.535 -0.441,0.953 -0.988,0.953 l -0.094,0 c -0.523,0 -0.961,-0.426 -0.961,-0.953 l 0,-0.102 c 0,-0.16 -0.109,-0.23 -0.223,-0.23 -0.117,0 -0.23,0.07 -0.23,0.23 l 0,0.102 c 0,0.777 0.641,1.406 1.414,1.406 l 0.094,0 c 0.777,0 1.453,-0.601 1.453,-1.406 l 0,-0.074 c 0,-0.289 -0.027,-0.547 -0.242,-0.887 l -2.266,-3.625 2.34,0 c 0.156,0 0.23,-0.113 0.23,-0.223 0,-0.121 -0.074,-0.23 -0.23,-0.23"
                 id="path202"
                 style="fill:#2b2b2a;fill-opacity:1;fill-rule:nonzero;stroke:none" /><path
                 d="m 411.004,4.207 c 0,0.715 -0.578,1.332 -1.274,1.332 l -1.292,0 0,-2.699 1.292,0 c 0.715,0 1.274,0.558 1.274,1.273 l 0,0.094 z m -0.086,3.109 c 0,0.723 -0.492,1.219 -1.188,1.219 l -1.292,0 0,-2.519 1.292,0 c 0.684,0 1.188,0.539 1.188,1.261 l 0,0.039 z m -1.188,-4.941 -1.531,0 c -0.121,0 -0.226,0.113 -0.226,0.234 l 0,6.153 c 0,0.125 0.105,0.238 0.226,0.238 l 1.531,0 c 0.961,0 1.657,-0.723 1.657,-1.684 l 0,-0.039 c 0,-0.644 -0.305,-1.207 -0.801,-1.511 0.531,-0.313 0.883,-0.911 0.883,-1.559 l 0,-0.094 c 0,-0.961 -0.778,-1.738 -1.739,-1.738"
                 id="path204"
                 style="fill:#2b2b2a;fill-opacity:1;fill-rule:nonzero;stroke:none" /><path
                 d="m 415.688,5.531 c 0,0.559 -0.477,1.016 -1.008,1.016 l -0.094,0 c -0.563,0 -1.027,-0.457 -1.027,-1.016 l 0,-0.629 2.129,0 0,0.629 z m 0.226,-1.105 -2.355,0 0,-0.625 c 0,-0.563 0.457,-1.02 1.015,-1.02 l 0.098,0 c 0.445,0 0.797,0.278 0.941,0.688 0.035,0.101 0.114,0.16 0.219,0.16 0.121,0 0.254,-0.086 0.254,-0.231 0,-0.015 -0.008,-0.046 -0.02,-0.082 -0.199,-0.601 -0.75,-0.992 -1.394,-0.992 l -0.098,0 c -0.808,0 -1.48,0.656 -1.48,1.477 l 0,1.73 c 0,0.805 0.672,1.481 1.472,1.481 l 0.094,0 c 0.828,0 1.492,-0.617 1.492,-1.481 l 0,-0.867 c 0,-0.125 -0.113,-0.238 -0.238,-0.238"
                 id="path206"
                 style="fill:#2b2b2a;fill-opacity:1;fill-rule:nonzero;stroke:none" /><path
                 d="m 419.727,6.184 c -0.079,0 -0.145,0.039 -0.192,0.105 -0.152,0.219 -0.344,0.258 -0.609,0.258 -0.391,0 -0.703,-0.172 -0.703,-0.629 l 0,-3.356 c 0,-0.16 -0.114,-0.238 -0.239,-0.238 -0.113,0 -0.238,0.078 -0.238,0.238 l 0,4.211 c 0,0.165 0.125,0.239 0.25,0.239 0.113,0 0.227,-0.074 0.227,-0.227 0.144,0.141 0.445,0.227 0.703,0.227 0.332,0 0.75,-0.106 0.988,-0.446 0.039,-0.046 0.059,-0.093 0.059,-0.144 0,-0.141 -0.125,-0.238 -0.246,-0.238"
                 id="path208"
                 style="fill:#2b2b2a;fill-opacity:1;fill-rule:nonzero;stroke:none" /><path
                 d="m 424.199,2.324 c -0.113,0 -0.238,0.067 -0.238,0.231 l 0,2.984 c 0,0.57 -0.438,1.008 -1.008,1.008 l -0.086,0 c -0.57,0 -1.015,-0.465 -1.015,-1.035 l 0,-2.957 c 0,-0.164 -0.125,-0.231 -0.239,-0.231 -0.113,0 -0.238,0.067 -0.238,0.231 l 0,4.218 c 0,0.165 0.125,0.239 0.238,0.239 0.114,0 0.239,-0.074 0.239,-0.239 l 0,-0.226 c 0.179,0.277 0.628,0.465 1.015,0.465 l 0.086,0 c 0.809,0 1.485,-0.645 1.485,-1.481 l 0,-2.976 c 0,-0.164 -0.126,-0.231 -0.239,-0.231"
                 id="path210"
                 style="fill:#2b2b2a;fill-opacity:1;fill-rule:nonzero;stroke:none" /></g></g></g></g></g></g></svg>