<?xml version="1.0" encoding="UTF-8" standalone="no"?>
<!-- Created with Inkscape (http://www.inkscape.org/) -->

<svg
   xmlns:dc="http://purl.org/dc/elements/1.1/"
   xmlns:cc="http://creativecommons.org/ns#"
   xmlns:rdf="http://www.w3.org/1999/02/22-rdf-syntax-ns#"
   xmlns:svg="http://www.w3.org/2000/svg"
   xmlns="http://www.w3.org/2000/svg"
   version="1.1"
   width="823.065"
   height="233.4175"
   id="svg2"
   xml:space="preserve"><metadata
     id="metadata8"><rdf:RDF><cc:Work
         rdf:about=""><dc:format>image/svg+xml</dc:format><dc:type
           rdf:resource="http://purl.org/dc/dcmitype/StillImage" /><dc:title></dc:title></cc:Work></rdf:RDF></metadata><defs
     id="defs6"><clipPath
       id="clipPath18"><path
         d="M 0,0 659,0 659,187 0,187 0,0 z"
         id="path20" /></clipPath></defs><g
     transform="matrix(1.25,0,0,-1.25,0,233.41749)"
     id="g10"><g
       id="g12"><g
         transform="translate(0,-0.266006)"
         id="g14"><g
           id="g16" /><g
           id="g22"><g
             clip-path="url(#clipPath18)"
             id="g24"><g
               id="g26"><path
                 d="m 34.695,17.348 c 0,1.988 -1.597,3.507 -3.316,3.507 l -3.352,0 0,-7.136 3.352,0 c 1.836,0 3.316,1.48 3.316,3.316 l 0,0.313 z m -3.316,14.351 -3.352,0 0,-6.359 3.352,0 c 1.68,0 3.004,1.367 3.004,3.355 0,1.91 -1.246,3.004 -3.004,3.004 M 31.34,9.234 l -5.574,0 c -1.211,0 -2.262,1.051 -2.262,2.262 l 0,22.426 c 0,1.207 1.051,2.262 2.262,2.262 l 5.574,0 c 4.371,0 7.566,-3.239 7.566,-7.489 0,-2.574 -1.051,-4.054 -2.496,-5.5 1.563,-1.519 2.809,-3.312 2.809,-5.847 l 0,-0.313 c 0,-4.371 -3.547,-7.801 -7.879,-7.801"
                 id="path28"
                 style="fill:#231f20;fill-opacity:1;fill-rule:nonzero;stroke:none" /><path
                 d="m 57.18,9.234 -11.426,0 c -1.211,0 -2.262,1.051 -2.262,2.262 l 0,22.426 c 0,1.207 1.051,2.262 2.262,2.262 l 11.426,0 c 1.519,0 2.261,-1.129 2.261,-2.223 0,-1.133 -0.742,-2.262 -2.261,-2.262 l -9.164,0 0,-6.359 6.082,0 c 1.523,0 2.261,-1.129 2.261,-2.262 0,-1.09 -0.738,-2.223 -2.261,-2.223 l -6.082,0 0,-7.136 9.164,0 c 1.519,0 2.261,-1.133 2.261,-2.262 0,-1.094 -0.742,-2.223 -2.261,-2.223"
                 id="path30"
                 style="fill:#231f20;fill-opacity:1;fill-rule:nonzero;stroke:none" /><path
                 d="m 74.965,28.383 c 0,1.832 -1.324,3.316 -3.16,3.316 l -3.977,0 0,-6.98 4.094,0 c 1.758,0 3.043,1.48 3.043,3.312 l 0,0.352 z m -0.117,-7.528 4.097,-8.617 c 0.192,-0.429 0.27,-0.742 0.27,-1.015 0,-1.285 -1.168,-2.184 -2.379,-2.184 -0.777,0 -1.52,0.352 -1.949,1.285 l -4.719,9.906 -2.34,0 0,-8.968 c 0,-1.524 -1.133,-2.223 -2.262,-2.223 -1.132,0 -2.261,0.699 -2.261,2.223 l 0,22.66 c 0,1.207 1.05,2.262 2.261,2.262 l 6.122,0 c 4.371,0 7.8,-3.434 7.8,-7.801 l 0,-0.352 c 0,-3.273 -1.832,-5.965 -4.64,-7.176"
                 id="path32"
                 style="fill:#231f20;fill-opacity:1;fill-rule:nonzero;stroke:none" /><path
                 d="m 97.32,9.039 -0.429,0 c -1.442,0 -1.989,0.859 -2.457,1.91 l -6.278,14.586 0,-14.273 c 0,-1.52 -1.133,-2.223 -2.261,-2.223 -1.133,0 -2.262,0.703 -2.262,2.223 l 0,22.894 c 0,1.207 1.051,2.262 2.262,2.262 l 0.507,0 c 1.442,0 1.989,-0.898 2.457,-1.949 l 6.2,-14.043 0,13.769 c 0,1.52 1.132,2.223 2.261,2.223 1.133,0 2.262,-0.703 2.262,-2.223 l 0,-22.933 c 0,-1.207 -1.051,-2.223 -2.262,-2.223"
                 id="path34"
                 style="fill:#231f20;fill-opacity:1;fill-rule:nonzero;stroke:none" /><path
                 d="m 126.41,9.234 -10.14,0 c -1.442,0 -2.301,1.325 -2.301,2.692 0,0.508 0.078,0.972 0.351,1.402 l 8.852,14.277 c 0.469,0.739 0.469,1.168 0.469,1.715 l 0,0.391 c 0,1.207 -0.973,2.223 -2.34,2.223 l -0.117,0 c -1.289,0 -2.262,-1.016 -2.262,-2.223 l 0,-0.43 c 0,-1.523 -1.133,-2.222 -2.262,-2.222 -1.133,0 -2.262,0.699 -2.262,2.222 l 0,0.586 c 0,3.781 3.079,6.551 6.786,6.551 l 0.117,0 c 3.629,0 6.863,-2.73 6.863,-6.551 l -0.039,-0.429 c 0,-1.524 -0.543,-2.692 -1.363,-4.059 l -7.137,-11.66 6.785,0 c 1.52,0 2.262,-1.133 2.262,-2.223 0,-1.133 -0.742,-2.262 -2.262,-2.262"
                 id="path36"
                 style="fill:#231f20;fill-opacity:1;fill-rule:nonzero;stroke:none" /><path
                 d="m 141.555,29.867 c 0,1.246 -0.977,2.067 -2.223,2.067 l -0.391,0 c -1.246,0 -2.261,-0.821 -2.261,-2.067 l 0,-14.316 c 0,-1.246 1.015,-2.067 2.261,-2.067 l 0.391,0 c 1.246,0 2.223,0.821 2.223,2.067 l 0,14.316 z m -2.223,-20.828 -0.391,0 c -3.742,0 -6.785,2.535 -6.785,6.316 l 0,14.707 c 0,3.743 3.043,6.356 6.785,6.356 l 0.391,0 c 3.742,0 6.746,-2.613 6.746,-6.356 l 0,-14.707 c 0,-3.781 -3.004,-6.316 -6.746,-6.316"
                 id="path38"
                 style="fill:#231f20;fill-opacity:1;fill-rule:nonzero;stroke:none" /><path
                 d="m 157.559,9.039 c -1.133,0 -2.262,0.703 -2.262,2.223 l 0,17.355 -0.742,-0.898 c -0.274,-0.348 -0.743,-1.012 -1.793,-1.012 -1.211,0 -2.262,1.012 -2.262,2.105 0,0.469 0,1.016 0.469,1.676 0.582,0.86 3.625,4.914 3.625,4.953 0.664,0.938 1.172,0.977 1.676,0.977 l 1.289,0 c 1.207,0 2.261,-1.055 2.261,-2.262 l 0,-22.894 c 0,-1.52 -1.132,-2.223 -2.261,-2.223"
                 id="path40"
                 style="fill:#231f20;fill-opacity:1;fill-rule:nonzero;stroke:none" /><path
                 d="m 172.191,9.039 -0.66,0 c -3.746,0 -6.789,2.418 -6.789,6.551 0,1.523 1.133,1.992 2.266,1.992 1.129,0 2.262,-0.469 2.262,-1.992 0,-1.207 1.011,-2.106 2.261,-2.106 l 0.66,0 c 1.25,0 2.262,0.938 2.262,2.184 l 0,2.574 c 0,2.965 -1.051,3.16 -3.43,3.16 -1.558,0 -2.339,1.094 -2.339,2.223 0,1.133 0.781,2.262 2.339,2.262 1.989,0 3.43,0.078 3.43,2.965 l 0,0.898 c 0,1.441 -1.09,2.184 -2.301,2.184 l -0.156,0 c -1.207,0 -2.379,-0.664 -2.379,-2.028 0,-1.367 -1.129,-1.953 -2.262,-1.953 -1.128,0 -2.261,0.742 -2.261,2.262 0,4.254 3.277,6.203 6.711,6.203 l 0.308,0 c 3.434,0 6.828,-1.832 6.828,-6.668 l 0,-0.898 c 0,-2.497 -0.664,-4.094 -1.601,-5.188 1.055,-1.285 1.601,-3.121 1.601,-5.422 l 0,-2.691 c 0,-4.055 -3.003,-6.512 -6.75,-6.512"
                 id="path42"
                 style="fill:#231f20;fill-opacity:1;fill-rule:nonzero;stroke:none" /><path
                 d="m 196.523,9.039 c -0.468,0 -0.972,0.273 -0.972,0.938 l 0,25.464 c 0,0.664 0.504,0.977 0.972,0.977 0.469,0 0.977,-0.313 0.977,-0.977 l 0,-25.464 c 0,-0.665 -0.508,-0.938 -0.977,-0.938"
                 id="path44"
                 style="fill:#231f20;fill-opacity:1;fill-rule:nonzero;stroke:none" /><path
                 d="m 216.371,9.039 c -0.469,0 -0.976,0.273 -0.976,0.938 l 0,12.246 c 0,2.336 -1.793,4.132 -4.133,4.132 l -0.352,0 c -2.34,0 -4.172,-1.91 -4.172,-4.253 l 0,-12.125 c 0,-0.665 -0.508,-0.938 -0.976,-0.938 -0.469,0 -0.973,0.273 -0.973,0.938 l 0,17.316 c 0,0.66 0.504,0.973 0.973,0.973 0.468,0 0.976,-0.313 0.976,-0.973 l 0,-0.938 c 0.742,1.133 2.574,1.911 4.172,1.911 l 0.352,0 c 3.316,0 6.082,-2.653 6.082,-6.082 l 0,-12.207 c 0,-0.665 -0.504,-0.938 -0.973,-0.938"
                 id="path46"
                 style="fill:#231f20;fill-opacity:1;fill-rule:nonzero;stroke:none" /><path
                 d="m 229.16,9.039 c -2.965,0 -4.836,1.871 -4.836,4.836 l 0,12.363 -1.406,0 c -0.66,0 -0.973,0.469 -0.973,0.938 0,0.504 0.313,0.972 0.973,0.972 l 1.406,0 0,7.293 c 0,0.664 0.469,0.977 0.973,0.977 0.469,0 0.937,-0.313 0.937,-0.977 l 0,-7.293 2.692,0 c 0.664,0 1.012,-0.468 1.012,-0.972 0,-0.469 -0.348,-0.938 -1.012,-0.938 l -2.692,0 0,-12.363 c 0,-1.676 1.094,-2.965 2.926,-2.965 0.66,0 0.973,-0.469 0.973,-0.933 0,-0.508 -0.313,-0.938 -0.973,-0.938"
                 id="path48"
                 style="fill:#231f20;fill-opacity:1;fill-rule:nonzero;stroke:none" /><path
                 d="m 245.223,22.184 c 0,2.3 -1.95,4.171 -4.137,4.171 l -0.387,0 c -2.301,0 -4.215,-1.871 -4.215,-4.171 l 0,-2.575 8.739,0 0,2.575 z m 0.937,-4.528 -9.676,0 0,-2.57 c 0,-2.305 1.875,-4.176 4.176,-4.176 l 0.387,0 c 1.836,0 3.277,1.133 3.863,2.809 0.156,0.429 0.469,0.664 0.899,0.664 0.503,0 1.05,-0.352 1.05,-0.938 0,-0.078 -0.039,-0.195 -0.078,-0.351 -0.82,-2.457 -3.082,-4.055 -5.734,-4.055 l -0.387,0 c -3.316,0 -6.086,2.691 -6.086,6.047 l 0,7.098 c 0,3.312 2.77,6.082 6.047,6.082 l 0.387,0 c 3.394,0 6.125,-2.536 6.125,-6.082 l 0,-3.551 c 0,-0.508 -0.469,-0.977 -0.973,-0.977"
                 id="path50"
                 style="fill:#231f20;fill-opacity:1;fill-rule:nonzero;stroke:none" /><path
                 d="m 261.078,24.875 c -0.312,0 -0.586,0.156 -0.781,0.426 -0.625,0.898 -1.402,1.054 -2.496,1.054 -1.598,0 -2.887,-0.703 -2.887,-2.574 l 0,-13.765 c 0,-0.664 -0.469,-0.977 -0.973,-0.977 -0.468,0 -0.976,0.313 -0.976,0.977 l 0,17.277 c 0,0.66 0.508,0.973 1.015,0.973 0.465,0 0.934,-0.313 0.934,-0.934 0.586,0.582 1.832,0.934 2.887,0.934 1.363,0 3.082,-0.43 4.054,-1.832 0.157,-0.196 0.235,-0.391 0.235,-0.586 0,-0.586 -0.508,-0.973 -1.012,-0.973"
                 id="path52"
                 style="fill:#231f20;fill-opacity:1;fill-rule:nonzero;stroke:none" /><path
                 d="m 278.762,9.039 c -0.469,0 -0.977,0.273 -0.977,0.938 l 0,12.246 c 0,2.336 -1.793,4.132 -4.133,4.132 l -0.351,0 c -2.34,0 -4.172,-1.91 -4.172,-4.253 l 0,-12.125 c 0,-0.665 -0.508,-0.938 -0.977,-0.938 -0.468,0 -0.972,0.273 -0.972,0.938 l 0,17.316 c 0,0.66 0.504,0.973 0.972,0.973 0.469,0 0.977,-0.313 0.977,-0.973 l 0,-0.938 c 0.742,1.133 2.574,1.911 4.172,1.911 l 0.351,0 c 3.317,0 6.082,-2.653 6.082,-6.082 l 0,-12.207 c 0,-0.665 -0.504,-0.938 -0.972,-0.938"
                 id="path54"
                 style="fill:#231f20;fill-opacity:1;fill-rule:nonzero;stroke:none" /><path
                 d="m 295.859,19.219 c -2.261,-1.055 -8.695,-0.625 -8.695,-4.407 l 0,-0.199 c 0,-2.336 1.715,-3.703 4.172,-3.703 l 0.391,0 c 2.3,0 4.132,1.871 4.132,4.176 l 0,4.133 z m 3.434,-10.18 -0.195,0 c -1.563,0.273 -2.34,0.977 -2.77,2.027 -1.133,-1.285 -2.769,-2.027 -4.601,-2.027 l -0.391,0 c -3.277,0 -6.086,1.949 -6.086,5.617 l 0,0.196 c 0,5.222 6.164,4.875 9.48,6.003 1.051,0.352 1.129,0.586 1.129,1.485 0,2.262 -1.754,3.976 -3.937,3.976 l -0.274,0 c -1.558,0 -3.082,-0.586 -3.863,-2.339 -0.195,-0.391 -0.469,-0.586 -0.855,-0.586 -0.508,0 -1.055,0.39 -1.055,0.976 0,0.117 0.039,0.274 0.117,0.43 1.133,2.648 3.59,3.469 5.656,3.469 l 0.274,0 c 3.078,0 5.848,-2.536 5.848,-5.774 l 0,-7.836 c 0,-3.004 0.39,-3.511 1.64,-3.707 0.543,-0.078 0.817,-0.39 0.817,-0.933 0,-0.586 -0.352,-0.977 -0.934,-0.977"
                 id="path56"
                 style="fill:#231f20;fill-opacity:1;fill-rule:nonzero;stroke:none" /><path
                 d="m 310.473,9.039 c -2.965,0 -4.836,1.871 -4.836,4.836 l 0,12.363 -1.403,0 c -0.664,0 -0.976,0.469 -0.976,0.938 0,0.504 0.312,0.972 0.976,0.972 l 1.403,0 0,7.293 c 0,0.664 0.468,0.977 0.976,0.977 0.469,0 0.934,-0.313 0.934,-0.977 l 0,-7.293 2.691,0 c 0.664,0 1.016,-0.468 1.016,-0.972 0,-0.469 -0.352,-0.938 -1.016,-0.938 l -2.691,0 0,-12.363 c 0,-1.676 1.094,-2.965 2.926,-2.965 0.664,0 0.976,-0.469 0.976,-0.933 0,-0.508 -0.312,-0.938 -0.976,-0.938"
                 id="path58"
                 style="fill:#231f20;fill-opacity:1;fill-rule:nonzero;stroke:none" /><path
                 d="m 318.129,9.039 c -0.469,0 -0.977,0.273 -0.977,0.938 l 0,17.316 c 0,0.66 0.508,0.973 0.977,0.973 0.469,0 0.973,-0.313 0.973,-0.973 l 0,-17.316 c 0,-0.665 -0.504,-0.938 -0.973,-0.938 m 0,24.141 c -0.469,0 -0.977,0.351 -0.977,0.976 l 0,1.285 c 0,0.664 0.508,0.977 0.977,0.977 0.469,0 0.973,-0.313 0.973,-0.977 l 0,-1.285 c 0,-0.625 -0.504,-0.976 -0.973,-0.976"
                 id="path60"
                 style="fill:#231f20;fill-opacity:1;fill-rule:nonzero;stroke:none" /><path
                 d="m 336.156,22.184 c 0,2.3 -1.871,4.171 -4.172,4.171 l -0.39,0 c -2.301,0 -4.172,-1.871 -4.172,-4.171 l 0,-7.098 c 0,-2.305 1.871,-4.176 4.172,-4.176 l 0.39,0 c 2.301,0 4.172,1.871 4.172,4.176 l 0,7.098 z m -4.172,-13.145 -0.39,0 c -3.317,0 -6.086,2.691 -6.086,6.047 l 0,7.098 c 0,3.429 2.769,6.082 6.086,6.082 l 0.39,0 c 3.313,0 6.082,-2.653 6.082,-6.082 l 0,-7.098 c 0,-3.356 -2.769,-6.047 -6.082,-6.047"
                 id="path62"
                 style="fill:#231f20;fill-opacity:1;fill-rule:nonzero;stroke:none" /><path
                 d="m 355.832,9.039 c -0.469,0 -0.973,0.273 -0.973,0.938 l 0,12.246 c 0,2.336 -1.797,4.132 -4.136,4.132 l -0.352,0 c -2.34,0 -4.172,-1.91 -4.172,-4.253 l 0,-12.125 c 0,-0.665 -0.508,-0.938 -0.972,-0.938 -0.469,0 -0.977,0.273 -0.977,0.938 l 0,17.316 c 0,0.66 0.508,0.973 0.977,0.973 0.464,0 0.972,-0.313 0.972,-0.973 l 0,-0.938 c 0.742,1.133 2.574,1.911 4.172,1.911 l 0.352,0 c 3.316,0 6.086,-2.653 6.086,-6.082 l 0,-12.207 c 0,-0.665 -0.508,-0.938 -0.977,-0.938"
                 id="path64"
                 style="fill:#231f20;fill-opacity:1;fill-rule:nonzero;stroke:none" /><path
                 d="m 372.93,19.219 c -2.262,-1.055 -8.696,-0.625 -8.696,-4.407 l 0,-0.199 c 0,-2.336 1.715,-3.703 4.172,-3.703 l 0.391,0 c 2.301,0 4.133,1.871 4.133,4.176 l 0,4.133 z m 3.433,-10.18 -0.195,0 c -1.559,0.273 -2.34,0.977 -2.77,2.027 -1.128,-1.285 -2.769,-2.027 -4.601,-2.027 l -0.391,0 c -3.273,0 -6.082,1.949 -6.082,5.617 l 0,0.196 c 0,5.222 6.16,4.875 9.477,6.003 1.051,0.352 1.129,0.586 1.129,1.485 0,2.262 -1.754,3.976 -3.938,3.976 l -0.273,0 c -1.559,0 -3.082,-0.586 -3.86,-2.339 -0.195,-0.391 -0.468,-0.586 -0.859,-0.586 -0.508,0 -1.055,0.39 -1.055,0.976 0,0.117 0.039,0.274 0.117,0.43 1.133,2.648 3.59,3.469 5.657,3.469 l 0.273,0 c 3.082,0 5.852,-2.536 5.852,-5.774 l 0,-7.836 c 0,-3.004 0.386,-3.511 1.636,-3.707 0.547,-0.078 0.821,-0.39 0.821,-0.933 0,-0.586 -0.352,-0.977 -0.938,-0.977"
                 id="path66"
                 style="fill:#231f20;fill-opacity:1;fill-rule:nonzero;stroke:none" /><path
                 d="m 387.379,9.039 c -3.16,0 -4.836,2.145 -4.836,4.836 l 0,21.566 c 0,0.664 0.504,0.977 0.973,0.977 0.468,0 0.976,-0.313 0.976,-0.977 l 0,-21.566 c 0,-1.676 1.129,-2.965 2.887,-2.965 0.66,0 1.012,-0.469 1.012,-0.933 0,-0.508 -0.352,-0.938 -1.012,-0.938"
                 id="path68"
                 style="fill:#231f20;fill-opacity:1;fill-rule:nonzero;stroke:none" /><path
                 d="m 412.648,16.762 c 0,2.926 -2.382,5.461 -5.226,5.461 l -5.305,0 0,-11.078 5.305,0 c 2.922,0 5.226,2.3 5.226,5.226 l 0,0.391 z m -0.351,12.754 c 0,2.964 -2.031,4.992 -4.875,4.992 l -5.305,0 0,-10.336 5.305,0 c 2.805,0 4.875,2.223 4.875,5.187 l 0,0.157 z m -4.875,-20.282 -6.281,0 c -0.508,0 -0.938,0.465 -0.938,0.973 l 0,25.234 c 0,0.508 0.43,0.977 0.938,0.977 l 6.281,0 c 3.937,0 6.785,-2.965 6.785,-6.902 l 0,-0.157 c 0,-2.652 -1.25,-4.953 -3.277,-6.203 2.183,-1.285 3.629,-3.742 3.629,-6.394 l 0,-0.391 c 0,-3.937 -3.2,-7.137 -7.137,-7.137"
                 id="path70"
                 style="fill:#231f20;fill-opacity:1;fill-rule:nonzero;stroke:none" /><path
                 d="m 421.887,9.039 c -0.469,0 -0.977,0.273 -0.977,0.938 l 0,17.316 c 0,0.66 0.508,0.973 0.977,0.973 0.468,0 0.976,-0.313 0.976,-0.973 l 0,-17.316 c 0,-0.665 -0.508,-0.938 -0.976,-0.938 m 0,24.141 c -0.469,0 -0.977,0.351 -0.977,0.976 l 0,1.285 c 0,0.664 0.508,0.977 0.977,0.977 0.468,0 0.976,-0.313 0.976,-0.977 l 0,-1.285 c 0,-0.625 -0.508,-0.976 -0.976,-0.976"
                 id="path72"
                 style="fill:#231f20;fill-opacity:1;fill-rule:nonzero;stroke:none" /><path
                 d="m 439.824,22.184 c 0,2.3 -1.871,4.171 -4.172,4.171 l -0.39,0 c -2.301,0 -4.172,-1.871 -4.172,-4.171 l 0,-7.098 c 0,-2.305 1.871,-4.176 4.172,-4.176 l 0.39,0 c 2.301,0 4.172,1.871 4.172,4.176 l 0,7.098 z m -4.172,-13.145 -0.39,0 c -3.317,0 -6.086,2.691 -6.086,6.047 l 0,7.098 c 0,3.429 2.769,6.082 6.086,6.082 l 0.39,0 c 3.317,0 6.082,-2.653 6.082,-6.082 l 0,-7.098 c 0,-3.356 -2.765,-6.047 -6.082,-6.047"
                 id="path74"
                 style="fill:#231f20;fill-opacity:1;fill-rule:nonzero;stroke:none" /><path
                 d="m 452.77,9.039 c -3.157,0 -4.836,2.145 -4.836,4.836 l 0,21.566 c 0,0.664 0.507,0.977 0.976,0.977 0.469,0 0.977,-0.313 0.977,-0.977 l 0,-21.566 c 0,-1.676 1.129,-2.965 2.883,-2.965 0.664,0 1.015,-0.469 1.015,-0.933 0,-0.508 -0.351,-0.938 -1.015,-0.938"
                 id="path76"
                 style="fill:#231f20;fill-opacity:1;fill-rule:nonzero;stroke:none" /><path
                 d="m 468.719,22.184 c 0,2.3 -1.871,4.171 -4.172,4.171 l -0.391,0 c -2.301,0 -4.172,-1.871 -4.172,-4.171 l 0,-7.098 c 0,-2.305 1.871,-4.176 4.172,-4.176 l 0.391,0 c 2.301,0 4.172,1.871 4.172,4.176 l 0,7.098 z m -4.172,-13.145 -0.391,0 c -3.312,0 -6.082,2.691 -6.082,6.047 l 0,7.098 c 0,3.429 2.77,6.082 6.082,6.082 l 0.391,0 c 3.316,0 6.086,-2.653 6.086,-6.082 l 0,-7.098 c 0,-3.356 -2.77,-6.047 -6.086,-6.047"
                 id="path78"
                 style="fill:#231f20;fill-opacity:1;fill-rule:nonzero;stroke:none" /><path
                 d="m 487.008,22.105 c 0,2.34 -1.832,4.25 -4.133,4.25 l -0.391,0 c -2.339,0 -4.132,-1.793 -4.132,-4.132 l 0,-7.18 c 0,-2.262 1.871,-4.133 4.132,-4.133 l 0.391,0 c 2.262,0 4.133,1.988 4.133,4.25 l 0,6.945 z m -4.094,-21.257 -0.391,0 c -2.652,0 -5.539,1.402 -6.394,4.136 -0.039,0.078 -0.039,0.192 -0.039,0.309 0,0.586 0.504,0.937 1.012,0.937 0.429,0 0.742,-0.234 0.898,-0.703 0.469,-1.558 2.34,-2.769 4.523,-2.769 l 0.391,0 c 2.301,0 4.094,1.875 4.094,4.176 l 0,3.976 c -0.742,-1.051 -2.574,-1.871 -4.133,-1.871 l -0.391,0 c -3.355,0 -6.046,2.691 -6.046,6.043 l 0,7.102 c 0,3.429 2.691,6.082 6.046,6.082 l 0.391,0 c 1.559,0 3.391,-0.778 4.133,-1.911 l 0,0.938 c 0,0.66 0.508,0.973 0.976,0.973 0.508,0 0.973,-0.313 0.973,-0.973 l 0,-20.359 c 0,-3.317 -2.652,-6.086 -6.043,-6.086"
                 id="path80"
                 style="fill:#231f20;fill-opacity:1;fill-rule:nonzero;stroke:none" /><path
                 d="M 507.207,26.98 500.539,6.191 c -0.781,-2.418 -2.301,-5.343 -5.227,-5.343 -0.585,0 -0.937,0.429 -0.937,1.015 0,0.586 0.352,0.782 0.859,0.895 2.028,0.39 2.809,2.226 3.395,4.019 l 1.402,4.25 -5.578,15.914 c -0.039,0.118 -0.039,0.235 -0.039,0.391 0,0.582 0.508,0.934 1.016,0.934 0.351,0 0.742,-0.196 0.898,-0.661 l 4.68,-13.496 4.328,13.457 c 0.156,0.465 0.469,0.7 0.898,0.7 0.508,0 1.012,-0.352 1.012,-0.934 0,-0.156 0,-0.273 -0.039,-0.352"
                 id="path82"
                 style="fill:#231f20;fill-opacity:1;fill-rule:nonzero;stroke:none" /><path
                 d="m 531.656,29.281 c 0,2.926 -2.301,5.227 -5.222,5.227 l -0.391,0 c -2.926,0 -5.227,-2.301 -5.227,-5.227 l 0,-13.144 c 0,-2.926 2.301,-5.227 5.227,-5.227 l 0.391,0 c 2.921,0 5.222,2.301 5.222,5.227 l 0,13.144 z m -5.222,-20.242 -0.391,0 c -3.941,0 -7.137,3.121 -7.137,7.098 l 0,13.144 c 0,3.977 3.196,7.137 7.137,7.137 l 0.391,0 c 3.937,0 7.136,-3.16 7.136,-7.137 l 0,-13.144 c 0,-3.977 -3.199,-7.098 -7.136,-7.098"
                 id="path84"
                 style="fill:#231f20;fill-opacity:1;fill-rule:nonzero;stroke:none" /><path
                 d="m 545.359,9.039 c -3.16,0 -4.836,2.145 -4.836,4.836 l 0,21.566 c 0,0.664 0.508,0.977 0.973,0.977 0.469,0 0.977,-0.313 0.977,-0.977 l 0,-21.566 c 0,-1.676 1.132,-2.965 2.886,-2.965 0.664,0 1.012,-0.469 1.012,-0.933 0,-0.508 -0.348,-0.938 -1.012,-0.938"
                 id="path86"
                 style="fill:#231f20;fill-opacity:1;fill-rule:nonzero;stroke:none" /><path
                 d="M 561.785,26.98 555.117,6.191 c -0.781,-2.418 -2.305,-5.343 -5.226,-5.343 -0.586,0 -0.938,0.429 -0.938,1.015 0,0.586 0.352,0.782 0.859,0.895 2.028,0.39 2.809,2.226 3.391,4.019 l 1.406,4.25 -5.578,15.914 c -0.039,0.118 -0.039,0.235 -0.039,0.391 0,0.582 0.508,0.934 1.016,0.934 0.347,0 0.738,-0.196 0.894,-0.661 l 4.68,-13.496 4.332,13.457 c 0.156,0.465 0.465,0.7 0.895,0.7 0.507,0 1.015,-0.352 1.015,-0.934 0,-0.156 0,-0.273 -0.039,-0.352"
                 id="path88"
                 style="fill:#231f20;fill-opacity:1;fill-rule:nonzero;stroke:none" /><path
                 d="m 589.383,9.039 c -0.508,0 -0.977,0.273 -0.977,0.938 l 0,12.246 c 0,2.336 -1.793,4.132 -4.133,4.132 l -0.351,0 c -2.34,0 -4.172,-1.91 -4.172,-4.253 l 0,-12.125 c 0,-0.665 -0.508,-0.938 -0.977,-0.938 -0.468,0 -0.972,0.273 -0.972,0.938 l 0,12.246 c 0,2.336 -1.797,4.132 -4.137,4.132 l -0.352,0 c -2.339,0 -4.171,-1.91 -4.171,-4.253 l 0,-12.125 c 0,-0.665 -0.469,-0.938 -0.977,-0.938 -0.465,0 -0.934,0.273 -0.934,0.938 l 0,17.316 c 0,0.66 0.469,0.973 0.934,0.973 0.508,0 0.977,-0.313 0.977,-0.973 l 0,-0.938 c 0.742,1.133 2.574,1.911 4.171,1.911 l 0.352,0 c 2.184,0 4.059,-1.129 5.148,-2.809 1.133,1.68 2.887,2.809 5.11,2.809 l 0.351,0 c 3.356,0 6.047,-2.653 6.047,-6.082 l 0,-12.207 c 0,-0.665 -0.468,-0.938 -0.937,-0.938"
                 id="path90"
                 style="fill:#231f20;fill-opacity:1;fill-rule:nonzero;stroke:none" /><path
                 d="m 607.285,22.223 c 0,2.261 -1.836,4.132 -4.137,4.132 l -0.351,0 c -2.301,0 -4.172,-1.988 -4.172,-4.25 l 0,-6.945 c 0,-2.34 1.832,-4.25 4.172,-4.25 l 0.351,0 c 2.34,0 4.137,1.793 4.137,4.137 l 0,7.176 z m -4.137,-13.184 -0.351,0 c -1.598,0 -3.43,0.742 -4.172,1.871 l 0,-9.086 c 0,-0.664 -0.508,-0.976 -0.977,-0.976 -0.464,0 -0.972,0.312 -0.972,0.976 l 0,25.469 c 0,0.66 0.508,0.973 0.972,0.973 0.469,0 0.977,-0.313 0.977,-0.973 l 0,-0.938 c 0.742,1.055 2.574,1.911 4.172,1.911 l 0.351,0 c 3.434,0 6.086,-2.77 6.086,-6.082 l 0,-7.098 c 0,-3.473 -2.769,-6.047 -6.086,-6.047"
                 id="path92"
                 style="fill:#231f20;fill-opacity:1;fill-rule:nonzero;stroke:none" /><path
                 d="m 616.652,9.039 c -0.468,0 -0.976,0.273 -0.976,0.938 l 0,17.316 c 0,0.66 0.508,0.973 0.976,0.973 0.469,0 0.973,-0.313 0.973,-0.973 l 0,-17.316 c 0,-0.665 -0.504,-0.938 -0.973,-0.938 m 0,24.141 c -0.468,0 -0.976,0.351 -0.976,0.976 l 0,1.285 c 0,0.664 0.508,0.977 0.976,0.977 0.469,0 0.973,-0.313 0.973,-0.977 l 0,-1.285 c 0,-0.625 -0.504,-0.976 -0.973,-0.976"
                 id="path94"
                 style="fill:#231f20;fill-opacity:1;fill-rule:nonzero;stroke:none" /><path
                 d="m 634.16,19.219 c -2.262,-1.055 -8.695,-0.625 -8.695,-4.407 l 0,-0.199 c 0,-2.336 1.715,-3.703 4.172,-3.703 l 0.39,0 c 2.301,0 4.133,1.871 4.133,4.176 l 0,4.133 z m 3.434,-10.18 -0.196,0 c -1.558,0.273 -2.339,0.977 -2.769,2.027 -1.133,-1.285 -2.77,-2.027 -4.602,-2.027 l -0.39,0 c -3.278,0 -6.086,1.949 -6.086,5.617 l 0,0.196 c 0,5.222 6.164,4.875 9.48,6.003 1.051,0.352 1.129,0.586 1.129,1.485 0,2.262 -1.754,3.976 -3.937,3.976 l -0.274,0 c -1.558,0 -3.082,-0.586 -3.863,-2.339 -0.191,-0.391 -0.465,-0.586 -0.856,-0.586 -0.507,0 -1.054,0.39 -1.054,0.976 0,0.117 0.039,0.274 0.117,0.43 1.133,2.648 3.59,3.469 5.656,3.469 l 0.274,0 c 3.082,0 5.847,-2.536 5.847,-5.774 l 0,-7.836 c 0,-3.004 0.391,-3.511 1.641,-3.707 0.547,-0.078 0.816,-0.39 0.816,-0.933 0,-0.586 -0.347,-0.977 -0.933,-0.977"
                 id="path96"
                 style="fill:#231f20;fill-opacity:1;fill-rule:nonzero;stroke:none" /><path
                 d="m 653.562,22.105 c 0,2.34 -1.832,4.25 -4.171,4.25 l -0.352,0 c -2.34,0 -4.133,-1.793 -4.133,-4.132 l 0,-7.18 c 0,-2.262 1.832,-4.133 4.133,-4.133 l 0.352,0 c 2.3,0 4.171,1.988 4.171,4.25 l 0,6.945 z m 0.977,-13.066 c -0.469,0 -0.977,0.273 -0.977,0.938 l 0,0.933 c -0.738,-1.051 -2.574,-1.871 -4.171,-1.871 l -0.352,0 c -3.43,0 -6.082,2.691 -6.082,6.043 l 0,7.102 c 0,3.429 2.77,6.082 6.082,6.082 l 0.352,0 c 1.597,0 3.433,-0.778 4.171,-1.911 l 0,9.086 c 0,0.664 0.508,0.977 0.977,0.977 0.469,0 0.977,-0.313 0.977,-0.977 l 0,-25.464 c 0,-0.665 -0.508,-0.938 -0.977,-0.938"
                 id="path98"
                 style="fill:#231f20;fill-opacity:1;fill-rule:nonzero;stroke:none" /></g></g></g></g></g></g></svg>